<?xml version="1.0" encoding="utf-8"?>
<!-- Generator: Adobe Illustrator 16.0.0, SVG Export Plug-In . SVG Version: 6.00 Build 0)  -->
<!DOCTYPE svg PUBLIC "-//W3C//DTD SVG 1.0//EN" "http://www.w3.org/TR/2001/REC-SVG-20010904/DTD/svg10.dtd">
<svg version="1.0" id="Layer_1" xmlns="http://www.w3.org/2000/svg" xmlns:xlink="http://www.w3.org/1999/xlink" x="0px" y="0px"
	 width="60px" height="60px" viewBox="0 0 60 60" enable-background="new 0 0 60 60" xml:space="preserve">
<g>
	<path fill="#425661" d="M30.094,13.654c-12.152,0-22,9.85-22,22c0,5.514,2.034,10.551,5.387,14.412l-5.146,6.309l1.549,1.264
		l4.987-6.111c3.952,3.791,9.313,6.125,15.224,6.125c5.924,0,11.297-2.346,15.253-6.154l4.984,6.148l1.555-1.26l-5.15-6.354
		c3.336-3.857,5.358-8.881,5.358-14.379C52.094,23.504,42.242,13.654,30.094,13.654z M30.094,55.652c-11.028,0-20-8.971-20-19.998
		c0-11.029,8.972-20,20-20s20,8.971,20,20C50.094,46.682,41.122,55.652,30.094,55.652z"/>
	<path fill="#425661" d="M21.05,7.652h-5.941c-5.523,0-10,4.477-10,10v6.018h2.844L21.05,10.498V7.652z M19.05,9.674L7.12,21.67
		H7.108v-4.018c0-4.41,3.589-8,8-8h3.941V9.674z"/>
	<path fill="#425661" d="M45.108,7.652h-5.945v2.846l13.1,13.172h2.846v-6.018C55.108,12.129,50.63,7.652,45.108,7.652z
		 M53.108,21.67h-0.014L41.163,9.674V9.652h3.945c4.411,0,8,3.59,8,8V21.67z"/>
	<polygon fill="#425661" points="29.108,35.652 18.083,35.652 18.083,37.652 31.108,37.652 31.108,19.652 29.108,19.652 	"/>
</g>
</svg>
