<?xml version="1.0" encoding="utf-8"?>
<!-- Generator: Adobe Illustrator 16.0.0, SVG Export Plug-In . SVG Version: 6.00 Build 0)  -->
<!DOCTYPE svg PUBLIC "-//W3C//DTD SVG 1.0//EN" "http://www.w3.org/TR/2001/REC-SVG-20010904/DTD/svg10.dtd">
<svg version="1.0" id="Layer_1" xmlns="http://www.w3.org/2000/svg" xmlns:xlink="http://www.w3.org/1999/xlink" x="0px" y="0px"
	 width="60px" height="60px" viewBox="0 0 60 60" enable-background="new 0 0 60 60" xml:space="preserve">
<g>
	<path fill="#5A4A46" d="M32.625,41.056c-2.44,0-4.881-0.928-6.738-2.786l1.414-1.414c2.937,2.937,7.713,2.936,10.65,0
		l12.596-12.597c2.936-2.936,2.936-7.712,0-10.648l-2.346-2.345c-2.936-2.936-7.713-2.936-10.648,0l-8.89,8.889l-1.414-1.414
		l8.89-8.889c3.715-3.715,9.76-3.717,13.477,0l2.346,2.345c3.715,3.716,3.715,9.762,0,13.477L39.365,38.27
		C37.508,40.127,35.066,41.056,32.625,41.056z"/>
	<path fill="#5A4A46" d="M16.619,57.067c-2.545,0-4.938-0.991-6.738-2.791l-2.346-2.345c-3.715-3.717-3.715-9.762,0-13.477
		l12.597-12.598c3.715-3.715,9.763-3.715,13.478,0l2.346,2.346l-1.414,1.414l-2.346-2.346c-2.936-2.936-7.714-2.935-10.649,0
		L8.949,39.869c-2.935,2.935-2.935,7.712,0,10.648l2.346,2.345c1.422,1.422,3.313,2.205,5.324,2.205
		c2.012,0,3.902-0.783,5.324-2.205l8.383-8.383l1.414,1.414l-8.383,8.383C21.559,56.076,19.165,57.067,16.619,57.067z"/>
</g>
</svg>
