<?xml version="1.0" encoding="utf-8"?>
<!-- Generator: Adobe Illustrator 16.0.0, SVG Export Plug-In . SVG Version: 6.00 Build 0)  -->
<!DOCTYPE svg PUBLIC "-//W3C//DTD SVG 1.0//EN" "http://www.w3.org/TR/2001/REC-SVG-20010904/DTD/svg10.dtd">
<svg version="1.0" id="Layer_1" xmlns="http://www.w3.org/2000/svg" xmlns:xlink="http://www.w3.org/1999/xlink" x="0px" y="0px"
	 width="60px" height="60px" viewBox="0 0 60 60" enable-background="new 0 0 60 60" xml:space="preserve">
<g>
	<path fill="#465B47" d="M54.107,13.131c0-2.762-2.239-4.999-5-4.999c-2.762,0-5,2.237-5,4.999c0,2.418,1.718,4.436,4,4.899v34.102
		h2V18.03C52.39,17.566,54.107,15.549,54.107,13.131z M49.107,16.131c-1.654,0-3-1.346-3-3c0-1.653,1.346-2.999,3-2.999
		s3,1.346,3,2.999C52.107,14.785,50.762,16.131,49.107,16.131z"/>
	<path fill="#465B47" d="M14.107,46.232V12.132h-2v34.101c-2.282,0.464-4,2.48-4,4.899c0,2.761,2.239,5,5,5s5-2.239,5-5
		C18.107,48.713,16.39,46.696,14.107,46.232z M13.107,54.132c-1.654,0-3-1.346-3-3s1.346-3,3-3s3,1.346,3,3
		S14.762,54.132,13.107,54.132z"/>
	<path fill="#465B47" d="M32.107,27.232V12.132h-2v15.101c-2.282,0.464-4,2.481-4,4.899s1.718,4.436,4,4.899v15.101h2V37.031
		c2.282-0.464,4-2.481,4-4.899S34.39,27.696,32.107,27.232z M31.107,35.132c-1.654,0-3-1.346-3-3s1.346-3,3-3s3,1.346,3,3
		S32.762,35.132,31.107,35.132z"/>
</g>
</svg>
