<?xml version="1.0" encoding="utf-8"?>
<!-- Generator: Adobe Illustrator 16.0.0, SVG Export Plug-In . SVG Version: 6.00 Build 0)  -->
<!DOCTYPE svg PUBLIC "-//W3C//DTD SVG 1.0//EN" "http://www.w3.org/TR/2001/REC-SVG-20010904/DTD/svg10.dtd">
<svg version="1.0" id="Layer_1" xmlns="http://www.w3.org/2000/svg" xmlns:xlink="http://www.w3.org/1999/xlink" x="0px" y="0px"
	 width="60px" height="60px" viewBox="0 0 60 60" enable-background="new 0 0 60 60" xml:space="preserve">
<path fill="#5A4A46" d="M29.332,8.065c-13.807,0-24.998,11.194-24.998,25.002c0,13.807,11.191,24.998,24.998,24.998
	s25.002-11.191,25.002-24.998C54.334,19.26,43.139,8.065,29.332,8.065z M52.309,32.067H34.373c0.191-6.871,2.342-13.4,6.26-19.023
	C47.338,16.844,51.957,23.909,52.309,32.067z M29.332,10.065c3.379,0,6.584,0.738,9.477,2.051
	c-4.053,5.908-6.268,12.758-6.455,19.951h-6.039c-0.189-7.193-2.402-14.044-6.457-19.951C22.75,10.803,25.955,10.065,29.332,10.065z
	 M18.035,13.044c3.918,5.621,6.068,12.151,6.26,19.023H6.359C6.709,23.909,11.33,16.843,18.035,13.044z M6.359,34.067h17.955
	c-0.191,6.876-2.338,13.412-6.258,19.033C11.34,49.305,6.711,42.233,6.359,34.067z M29.332,56.065c-3.377,0-6.582-0.737-9.475-2.051
	c4.055-5.906,6.268-12.752,6.457-19.947h6.039c0.188,7.197,2.402,14.041,6.455,19.947C35.916,55.327,32.711,56.065,29.332,56.065z
	 M40.605,53.103c-3.918-5.621-6.062-12.157-6.252-19.035h17.955C51.957,42.234,47.326,49.307,40.605,53.103z"/>
</svg>
