<?xml version="1.0" encoding="utf-8"?>
<!-- Generator: Adobe Illustrator 16.0.0, SVG Export Plug-In . SVG Version: 6.00 Build 0)  -->
<!DOCTYPE svg PUBLIC "-//W3C//DTD SVG 1.0//EN" "http://www.w3.org/TR/2001/REC-SVG-20010904/DTD/svg10.dtd">
<svg version="1.0" id="Layer_1" xmlns="http://www.w3.org/2000/svg" xmlns:xlink="http://www.w3.org/1999/xlink" x="0px" y="0px"
	 width="60px" height="60px" viewBox="0 0 60 60" enable-background="new 0 0 60 60" xml:space="preserve">
<g>
	<path fill="#465B47" d="M0.053,22.095v20.073c0,1.637,1.327,2.964,2.963,2.964h25.037v-26H3.016
		C1.38,19.132,0.053,20.458,0.053,22.095z M26.053,43.132H3.016c-0.531,0-0.963-0.433-0.963-0.964V22.095
		c0-0.531,0.432-0.963,0.963-0.963h23.037V43.132z"/>
	<path fill="#465B47" d="M60,32.132c0-3.296-2.658-5.97-5.947-5.997v-4.04c0-1.637-1.326-2.963-2.963-2.963H30.053v2h2h2.833H51.09
		c0.531,0,0.963,0.432,0.963,0.963v20.073c0,0.531-0.432,0.964-0.963,0.964H34.886h-2.833h-2v2H51.09
		c1.637,0,2.963-1.327,2.963-2.964v-4.039C57.342,38.102,60,35.429,60,32.132z M54.053,36.127v-7.99
		C56.233,28.166,58,29.943,58,32.132S56.233,36.098,54.053,36.127z"/>
</g>
</svg>
