<?xml version="1.0" encoding="utf-8"?>
<!-- Generator: Adobe Illustrator 16.0.0, SVG Export Plug-In . SVG Version: 6.00 Build 0)  -->
<!DOCTYPE svg PUBLIC "-//W3C//DTD SVG 1.1//EN" "http://www.w3.org/Graphics/SVG/1.1/DTD/svg11.dtd">
<svg version="1.1" id="Layer_1" xmlns="http://www.w3.org/2000/svg" xmlns:xlink="http://www.w3.org/1999/xlink" x="0px" y="0px"
	 width="50px" height="57px" viewBox="0 0 50 57" enable-background="new 0 0 50 57" xml:space="preserve">
<g>
	<path fill="#5A4A46" d="M41.02,39.483V23.412c0-8.369-6.057-15.311-14.02-16.723V5.412c0-1.104-0.896-2-2-2h-2
		c-1.105,0-2,0.896-2,2v1.283C13.053,8.123,7.02,15.057,7.02,23.412v16.071L0,45.165v3.242h48v-3.242L41.02,39.483z M46,46.407H2
		v-0.288l6.277-5.081l0.742-0.601v-0.954V23.412c0-8.271,6.729-15,15-15c8.27,0,15,6.729,15,15v16.071v0.951l0.736,0.6L46,46.116
		V46.407z"/>
	<path fill="#5A4A46" d="M23.998,55.392c2.764,0,5.006-2.236,5.006-5H18.996C18.998,53.155,21.238,55.392,23.998,55.392z"/>
</g>
</svg>
