<?xml version="1.0" encoding="utf-8"?>
<!-- Generator: Adobe Illustrator 16.0.0, SVG Export Plug-In . SVG Version: 6.00 Build 0)  -->
<!DOCTYPE svg PUBLIC "-//W3C//DTD SVG 1.0//EN" "http://www.w3.org/TR/2001/REC-SVG-20010904/DTD/svg10.dtd">
<svg version="1.0" id="Layer_1" xmlns="http://www.w3.org/2000/svg" xmlns:xlink="http://www.w3.org/1999/xlink" x="0px" y="0px"
	 width="60px" height="60px" viewBox="0 0 60 60" enable-background="new 0 0 60 60" xml:space="preserve">
<path fill="#425661" d="M51.111,10.091h-18c-1.203,0-2.27,0.542-3.002,1.384c-0.734-0.842-1.801-1.384-3.004-1.384h-18
	c-2.209,0-4,1.791-4,4v34.014c0,2.209,1.791,4,4,4h18c0.02,0,0.039-0.006,0.059-0.006c1.064,0.025,1.922,0.883,1.947,1.945v2.061h2
	v-1.109h0.02v-0.902c0-1.08,0.863-1.959,1.938-1.994c0.014,0,0.029,0.006,0.043,0.006h18c2.209,0,4-1.791,4-4V14.091
	C55.111,11.882,53.32,10.091,51.111,10.091z M7.105,48.105V14.091c0-1.103,0.898-2,2-2h18c1.104,0,2,0.897,2,2v34.014
	c0,1.102-0.896,2-2,2h-18C8.004,50.105,7.105,49.207,7.105,48.105z M53.111,48.105c0,1.102-0.896,2-2,2h-18c-1.102,0-2-0.898-2-2
	v-0.818V14.091c0-1.103,0.898-2,2-2h18c1.104,0,2,0.897,2,2V48.105z"/>
</svg>
