<?xml version="1.0" encoding="utf-8"?>
<!-- Generator: Adobe Illustrator 16.0.0, SVG Export Plug-In . SVG Version: 6.00 Build 0)  -->
<!DOCTYPE svg PUBLIC "-//W3C//DTD SVG 1.0//EN" "http://www.w3.org/TR/2001/REC-SVG-20010904/DTD/svg10.dtd">
<svg version="1.0" id="Layer_1" xmlns="http://www.w3.org/2000/svg" xmlns:xlink="http://www.w3.org/1999/xlink" x="0px" y="0px"
	 width="60px" height="60px" viewBox="0 0 60 60" enable-background="new 0 0 60 60" xml:space="preserve">
<g>
	<path fill="#425661" d="M54.108,11.152h-48v13h2.001v32h43.999v-32h2V11.152z M50.108,54.152H10.109v-30h39.999V54.152z
		 M52.108,22.152H8.109H8.108v-9h44V22.152z"/>
	<path fill="#425661" d="M22.875,37.16h14.516c2.066,0,3.743-1.627,3.743-3.637v-0.725c0-2.01-1.677-3.638-3.743-3.638H22.875
		c-2.067,0-3.741,1.628-3.741,3.638v0.725C19.134,35.533,20.808,37.16,22.875,37.16z M21.134,32.799
		c0-0.904,0.781-1.639,1.741-1.639h14.516c0.961,0,1.743,0.734,1.743,1.639v0.725c0,0.902-0.782,1.637-1.743,1.637H22.875
		c-0.96,0-1.741-0.734-1.741-1.637V32.799z"/>
</g>
</svg>
