<?xml version="1.0" encoding="utf-8"?>
<!-- Generator: Adobe Illustrator 16.0.0, SVG Export Plug-In . SVG Version: 6.00 Build 0)  -->
<!DOCTYPE svg PUBLIC "-//W3C//DTD SVG 1.0//EN" "http://www.w3.org/TR/2001/REC-SVG-20010904/DTD/svg10.dtd">
<svg version="1.0" id="Layer_1" xmlns="http://www.w3.org/2000/svg" xmlns:xlink="http://www.w3.org/1999/xlink" x="0px" y="0px"
	 width="60px" height="60px" viewBox="0 0 60 60" enable-background="new 0 0 60 60" xml:space="preserve">
<g>
	<path fill="#465B47" d="M30,15.014c-8.285,0-15,6.718-15,15.002c0,8.282,6.715,14.998,15,14.998c8.284,0,15-6.716,15-14.998
		C45,21.731,38.284,15.014,30,15.014z M30,43.014c-7.168,0-13-5.831-13-12.998c0-7.169,5.832-13.002,13-13.002s13,5.833,13,13.002
		C43,37.183,37.168,43.014,30,43.014z"/>
	<rect x="29.008" fill="#465B47" width="2" height="12.014"/>
	<rect x="29.008" y="48.014" fill="#465B47" width="2" height="11.986"/>
	<rect y="29" fill="#465B47" width="12" height="2"/>
	<rect x="48" y="29" fill="#465B47" width="12" height="2"/>
	
		<rect x="46.039" y="6.993" transform="matrix(0.7071 0.7071 -0.7071 0.7071 22.9028 -29.4818)" fill="#465B47" width="2" height="11.825"/>
	
		<rect x="11.976" y="41.058" transform="matrix(-0.7071 -0.7071 0.7071 -0.7071 -11.0626 89.3591)" fill="#465B47" width="2" height="11.825"/>
	
		<rect x="7.064" y="11.905" transform="matrix(0.7071 0.7071 -0.7071 0.7071 12.9262 -5.3959)" fill="#465B47" width="11.825" height="2"/>
	
		<rect x="41.13" y="45.971" transform="matrix(-0.7071 -0.7071 0.7071 -0.7071 47.0924 113.4477)" fill="#465B47" width="11.825" height="2"/>
</g>
</svg>
