<?xml version="1.0" encoding="utf-8"?>
<!-- Generator: Adobe Illustrator 16.0.0, SVG Export Plug-In . SVG Version: 6.00 Build 0)  -->
<!DOCTYPE svg PUBLIC "-//W3C//DTD SVG 1.0//EN" "http://www.w3.org/TR/2001/REC-SVG-20010904/DTD/svg10.dtd">
<svg version="1.0" id="Layer_1" xmlns="http://www.w3.org/2000/svg" xmlns:xlink="http://www.w3.org/1999/xlink" x="0px" y="0px"
	 width="60px" height="60px" viewBox="0 0 60 60" enable-background="new 0 0 60 60" xml:space="preserve">
<g>
	<path fill="#465B47" d="M6.565,8.652v48h48v-48H6.565z M52.565,10.652v9h-44v-9H52.565z M8.565,54.652v-33h44v33H8.565z"/>
	<rect x="21.564" y="13.652" fill="#465B47" width="3.001" height="3"/>
	<rect x="36.565" y="13.652" fill="#465B47" width="3" height="3"/>
	<path fill="#465B47" d="M23.715,28.768c-0.358,2.434-1.516,2.476-3.845,2.56l-0.361,0.014v1.696h3.946V44.13h2.094V28.447h-1.787
		L23.715,28.768z"/>
	<path fill="#465B47" d="M35.521,33.481c-0.93,0-1.885,0.304-2.642,0.812l0.712-3.667h6.593V28.64H32.03l-1.591,8.493h1.81
		l0.11-0.173c0.633-0.985,1.786-1.598,3.012-1.598c1.995,0,3.443,1.476,3.443,3.508c0,1.838-1.153,3.699-3.357,3.699
		c-1.884,0-3.238-1.271-3.294-3.093l-0.012-0.363H30.06l0.009,0.384c0.067,2.963,2.189,4.953,5.281,4.953
		c3.117,0,5.559-2.386,5.559-5.431C40.908,35.707,38.743,33.481,35.521,33.481z"/>
</g>
</svg>
