<?xml version="1.0" encoding="utf-8"?>
<!-- Generator: Adobe Illustrator 16.0.0, SVG Export Plug-In . SVG Version: 6.00 Build 0)  -->
<!DOCTYPE svg PUBLIC "-//W3C//DTD SVG 1.0//EN" "http://www.w3.org/TR/2001/REC-SVG-20010904/DTD/svg10.dtd">
<svg version="1.0" id="Layer_1" xmlns="http://www.w3.org/2000/svg" xmlns:xlink="http://www.w3.org/1999/xlink" x="0px" y="0px"
	 width="60px" height="60px" viewBox="0 0 60 60" enable-background="new 0 0 60 60" xml:space="preserve">
<path fill="#5A4A46" d="M56.759,19.202h-42.03l-3.394-14H1.906v2h7.856l9.751,40.222c-2.079,0.605-3.607,2.503-3.607,4.778
	c0,2.761,2.238,5,5,5s5-2.239,5-5c0-1.131-0.39-2.163-1.022-3h14.044c-0.633,0.837-1.021,1.869-1.021,3c0,2.761,2.237,5,4.999,5
	c2.763,0,5.001-2.239,5.001-5c0-2.763-2.238-4.999-5-5l0,0h-21.39l-0.97-4h28.076L56.759,19.202z M23.906,52.202
	c0,1.654-1.346,3-3,3s-3-1.346-3-3s1.346-3,3-3S23.906,50.548,23.906,52.202z M45.906,52.202c0,1.654-1.346,3-3.001,3
	c-1.653,0-2.999-1.346-2.999-3s1.346-3,2.999-3C44.561,49.202,45.906,50.548,45.906,52.202z M20.062,41.202l-4.849-20H53.97
	l-6.78,20H20.062z"/>
</svg>
