<?xml version="1.0" encoding="utf-8"?>
<!-- Generator: Adobe Illustrator 16.0.0, SVG Export Plug-In . SVG Version: 6.00 Build 0)  -->
<!DOCTYPE svg PUBLIC "-//W3C//DTD SVG 1.0//EN" "http://www.w3.org/TR/2001/REC-SVG-20010904/DTD/svg10.dtd">
<svg version="1.0" id="Layer_1" xmlns="http://www.w3.org/2000/svg" xmlns:xlink="http://www.w3.org/1999/xlink" x="0px" y="0px"
	 width="60px" height="60px" viewBox="0 0 60 60" enable-background="new 0 0 60 60" xml:space="preserve">
<g>
	<path fill="#465B47" d="M50.181,11.314H10.175c-2.209,0-4,1.791-4,4v26.014c0,2.209,1.791,4,4,4h28.076l7.927,7.927v-7.927h4.003
		c2.209,0,4-1.791,4-4V15.314C54.181,13.105,52.39,11.314,50.181,11.314z M52.181,41.328c0,1.103-0.897,2-2,2h-4.003h-2v2v3.099
		l-4.513-4.513l-0.586-0.586h-0.828H10.175c-1.103,0-2-0.897-2-2V15.314c0-1.103,0.897-2,2-2h40.006c1.103,0,2,0.897,2,2V41.328z"/>
	<circle fill="#465B47" cx="30.178" cy="28.328" r="2"/>
	<circle fill="#465B47" cx="38.178" cy="28.328" r="2"/>
	<circle fill="#465B47" cx="22.366" cy="28.328" r="2"/>
</g>
</svg>
