<?xml version="1.0" encoding="utf-8"?>
<!-- Generator: Adobe Illustrator 16.0.0, SVG Export Plug-In . SVG Version: 6.00 Build 0)  -->
<!DOCTYPE svg PUBLIC "-//W3C//DTD SVG 1.0//EN" "http://www.w3.org/TR/2001/REC-SVG-20010904/DTD/svg10.dtd">
<svg version="1.0" id="Layer_1" xmlns="http://www.w3.org/2000/svg" xmlns:xlink="http://www.w3.org/1999/xlink" x="0px" y="0px"
	 width="60px" height="60px" viewBox="0 0 60 60" enable-background="new 0 0 60 60" xml:space="preserve">
<g>
	<path fill="#465B47" d="M30.919,7.683c-13.807,0-25,11.192-25,25s11.193,25,25,25s25-11.192,25-25S44.726,7.683,30.919,7.683z
		 M30.919,55.683c-12.683,0-23-10.318-23-23s10.317-23,23-23s23,10.318,23,23S43.602,55.683,30.919,55.683z"/>
	<path fill="#465B47" d="M43.425,23.757L27.371,39.324l-5.624-5.623c-0.586-0.586-1.535-0.586-2.121,0s-0.586,1.535,0,2.121
		l6.668,6.668c0.293,0.293,0.677,0.439,1.061,0.439c0.376,0,0.753-0.141,1.044-0.423l17.114-16.596
		c0.595-0.577,0.609-1.526,0.033-2.121C44.967,23.194,44.019,23.181,43.425,23.757z"/>
</g>
</svg>
