<?xml version="1.0" encoding="utf-8"?>
<!-- Generator: Adobe Illustrator 16.0.0, SVG Export Plug-In . SVG Version: 6.00 Build 0)  -->
<!DOCTYPE svg PUBLIC "-//W3C//DTD SVG 1.0//EN" "http://www.w3.org/TR/2001/REC-SVG-20010904/DTD/svg10.dtd">
<svg version="1.0" id="Layer_1" xmlns="http://www.w3.org/2000/svg" xmlns:xlink="http://www.w3.org/1999/xlink" x="0px" y="0px"
	 width="60px" height="60px" viewBox="0 0 60 60" enable-background="new 0 0 60 60" xml:space="preserve">
<g>
	<path fill="#425661" d="M49.428,30.641c0.004-0.16,0.023-0.314,0.023-0.475c0-8.561-6.939-15.5-15.5-15.5
		c-6.167,0-11.478,3.611-13.973,8.826c-1.079-0.543-2.294-0.855-3.584-0.855c-3.959,0-7.238,2.881-7.879,6.658
		c-4.715,1.617-8.11,6.078-8.11,11.344c0,6.623,5.368,11.992,11.989,11.998h37.057v-0.002c6.049-0.031,10.943-4.941,10.943-10.996
		C60.395,35.574,55.488,30.658,49.428,30.641z M49.441,50.635l-0.438,0.002H12.396c-5.509-0.006-9.991-4.49-9.991-9.998
		c0-4.268,2.717-8.066,6.759-9.453l1.125-0.385l0.198-1.172c0.49-2.893,2.975-4.992,5.907-4.992c0.935,0,1.838,0.217,2.685,0.643
		l1.823,0.916l0.88-1.84c2.235-4.672,7.013-7.689,12.169-7.689c7.445,0,13.5,6.055,13.5,13.5c0,0.041-0.004,0.084-0.008,0.125
		c-0.006,0.1-0.012,0.199-0.014,0.301l-0.051,2.041l2.043,0.008c4.947,0.014,8.973,4.051,8.973,8.998
		C58.395,46.572,54.377,50.609,49.441,50.635z"/>
	<path fill="#425661" d="M30.399,43.637c-3.859,0-7-3.139-7-7c0-3.859,3.141-7,7-7v3.693l7.527-4.346l-7.527-4.348v3
		c-4.971,0-9,4.029-9,9s4.029,9,9,9c4.97,0,9-4.029,9-9h-2C37.398,40.498,34.258,43.637,30.399,43.637z"/>
</g>
</svg>
