<?xml version="1.0" encoding="utf-8"?>
<!-- Generator: Adobe Illustrator 16.0.0, SVG Export Plug-In . SVG Version: 6.00 Build 0)  -->
<!DOCTYPE svg PUBLIC "-//W3C//DTD SVG 1.0//EN" "http://www.w3.org/TR/2001/REC-SVG-20010904/DTD/svg10.dtd">
<svg version="1.0" id="Layer_1" xmlns="http://www.w3.org/2000/svg" xmlns:xlink="http://www.w3.org/1999/xlink" x="0px" y="0px"
	 width="60px" height="60px" viewBox="0 0 60 60" enable-background="new 0 0 60 60" xml:space="preserve">
<path fill="#425661" d="M33.558,16.666c7.444,0,13.5,6.055,13.5,13.5c0,0.041-0.005,0.084-0.008,0.125
	c-0.006,0.1-0.013,0.199-0.015,0.301l-0.051,2.041l2.044,0.008C53.976,32.654,58,36.691,58,41.639c0,4.934-4.017,8.971-8.953,8.996
	l-0.437,0.002H12.002c-5.509-0.006-9.991-4.49-9.991-9.998c0-4.268,2.717-8.066,6.759-9.453l1.125-0.385l0.198-1.172
	c0.49-2.893,2.975-4.992,5.907-4.992c0.935,0,1.838,0.217,2.685,0.643l1.823,0.916l0.88-1.84
	C23.623,19.684,28.4,16.666,33.558,16.666 M33.558,14.666c-6.168,0-11.479,3.611-13.974,8.826c-1.079-0.543-2.294-0.855-3.584-0.855
	c-3.959,0-7.238,2.881-7.879,6.658c-4.715,1.617-8.11,6.078-8.11,11.344c0,6.623,5.368,11.992,11.989,11.998h37.058v-0.002
	C55.106,52.604,60,47.693,60,41.639c0-6.064-4.905-10.98-10.966-10.998c0.004-0.16,0.023-0.314,0.023-0.475
	C49.058,21.605,42.118,14.666,33.558,14.666L33.558,14.666z"/>
</svg>
