<?xml version="1.0" encoding="utf-8"?>
<!-- Generator: Adobe Illustrator 16.0.0, SVG Export Plug-In . SVG Version: 6.00 Build 0)  -->
<!DOCTYPE svg PUBLIC "-//W3C//DTD SVG 1.0//EN" "http://www.w3.org/TR/2001/REC-SVG-20010904/DTD/svg10.dtd">
<svg version="1.0" id="Layer_1" xmlns="http://www.w3.org/2000/svg" xmlns:xlink="http://www.w3.org/1999/xlink" x="0px" y="0px"
	 width="60px" height="60px" viewBox="0 0 60 60" enable-background="new 0 0 60 60" xml:space="preserve">
<g>
	<path fill="#465B47" d="M46.124,39.486h8.051v-16h-8h-2h-36v15c0,10.493,8.507,19,19,19C37.33,57.486,45.602,49.512,46.124,39.486z
		 M46.175,25.486h6v12h-6V25.486z M27.175,55.486c-9.374,0-17-7.626-17-17v-13h34v13C44.175,47.86,36.549,55.486,27.175,55.486z"/>
	<polygon fill="#465B47" points="8.175,59.486 46.175,59.486 46.175,57.486 27.175,57.486 8.175,57.486 	"/>
	<rect x="18.175" y="8.486" fill="#465B47" width="2" height="9"/>
	<rect x="34.175" y="8.486" fill="#465B47" width="2" height="9"/>
	<rect x="26.175" y="5.486" fill="#465B47" width="2" height="12"/>
</g>
</svg>
