<?xml version="1.0" encoding="utf-8"?>
<!-- Generator: Adobe Illustrator 16.0.0, SVG Export Plug-In . SVG Version: 6.00 Build 0)  -->
<!DOCTYPE svg PUBLIC "-//W3C//DTD SVG 1.0//EN" "http://www.w3.org/TR/2001/REC-SVG-20010904/DTD/svg10.dtd">
<svg version="1.0" id="Layer_1" xmlns="http://www.w3.org/2000/svg" xmlns:xlink="http://www.w3.org/1999/xlink" x="0px" y="0px"
	 width="60px" height="60px" viewBox="0 0 60 60" enable-background="new 0 0 60 60" xml:space="preserve">
<path fill="#465B47" d="M34.108,9.64v3.325v1.549l1.5,0.388c1.697,0.438,3.316,1.12,4.812,2.028l1.342,0.814l1.109-1.11l2.379-2.378
	l4.242,4.242l-2.459,2.459l-1.083,1.082l0.763,1.328c0.846,1.473,1.479,3.067,1.879,4.739l0.368,1.533h1.577h3.57v6h-3.74h-1.522
	l-0.405,1.468c-0.438,1.583-1.094,3.102-1.951,4.514l-0.814,1.343l1.11,1.109l2.708,2.708l-4.242,4.242l-2.789-2.788l-1.083-1.083
	l-1.327,0.763c-1.377,0.792-2.872,1.397-4.442,1.803l-1.501,0.387v1.55v3.985h-6v-3.985v-1.55l-1.501-0.387
	c-1.57-0.405-3.065-1.011-4.442-1.803l-1.328-0.763l-1.082,1.083l-2.789,2.789l-4.242-4.243l2.708-2.708l1.11-1.109l-0.814-1.343
	c-0.857-1.412-1.514-2.931-1.951-4.514l-0.405-1.468h-1.522h-3.74v-6h3.57h1.577l0.368-1.533c0.4-1.672,1.033-3.267,1.879-4.739
	l0.763-1.328l-1.083-1.082l-2.459-2.459l4.242-4.242l2.379,2.378l1.109,1.11l1.342-0.814c1.496-0.908,3.115-1.59,4.812-2.028
	l1.5-0.388v-1.549V9.64H34.108 M31.108,41.642c4.963,0,9-4.038,9-9.002c0-4.963-4.037-9.001-9-9.001s-9,4.038-9,9.001
	C22.108,37.604,26.146,41.642,31.108,41.642 M36.108,7.64h-10v5.325c-1.91,0.493-3.705,1.257-5.35,2.255l-3.793-3.793l-7.07,7.071
	l3.873,3.873c-0.935,1.627-1.641,3.396-2.09,5.269h-5.57v10h5.74c0.494,1.788,1.229,3.47,2.169,5.02l-4.122,4.122l7.07,7.072
	l4.203-4.204c1.531,0.88,3.188,1.554,4.939,2.005v5.985h10v-5.985c1.751-0.451,3.408-1.125,4.939-2.005l4.203,4.203l7.07-7.071
	l-4.122-4.122c0.94-1.55,1.675-3.231,2.169-5.02h5.74v-10h-5.57c-0.449-1.873-1.155-3.642-2.09-5.269l3.873-3.873l-7.07-7.071
	l-3.793,3.793c-1.645-0.998-3.439-1.762-5.35-2.255V7.64L36.108,7.64z M31.108,39.642c-3.867,0-7-3.135-7-7.002s3.133-7.001,7-7.001
	s7,3.134,7,7.001S34.976,39.642,31.108,39.642L31.108,39.642z"/>
</svg>
