<?xml version="1.0" encoding="utf-8"?>
<!-- Generator: Adobe Illustrator 16.0.0, SVG Export Plug-In . SVG Version: 6.00 Build 0)  -->
<!DOCTYPE svg PUBLIC "-//W3C//DTD SVG 1.0//EN" "http://www.w3.org/TR/2001/REC-SVG-20010904/DTD/svg10.dtd">
<svg version="1.0" id="Layer_1" xmlns="http://www.w3.org/2000/svg" xmlns:xlink="http://www.w3.org/1999/xlink" x="0px" y="0px"
	 width="60px" height="60px" viewBox="0 0 60 60" enable-background="new 0 0 60 60" xml:space="preserve">
<path fill="#425661" d="M30.108,9.652c-13.256,0-24,10.744-24,24c0,13.256,10.744,24,24,24s24-10.744,24-24
	C54.108,20.396,43.364,9.652,30.108,9.652z M30.108,11.652c12.131,0,22,9.869,22,22c0,5.336-1.912,10.234-5.086,14.049
	c-2.193-0.916-7.371-2.713-10.576-3.66c-0.273-0.086-0.316-0.1-0.316-1.236c0-0.939,0.387-1.887,0.764-2.688
	c0.408-0.869,0.893-2.332,1.066-3.645c0.486-0.564,1.148-1.678,1.574-3.801c0.373-1.87,0.199-2.55-0.049-3.189
	c-0.025-0.067-0.053-0.134-0.072-0.2c-0.094-0.438,0.035-2.717,0.355-4.484c0.221-1.213-0.057-3.792-1.727-5.926
	c-1.055-1.349-3.072-3.004-6.758-3.234l-2.021,0.002c-3.623,0.229-5.643,1.884-6.697,3.232c-1.67,2.134-1.947,4.713-1.727,5.925
	c0.322,1.769,0.449,4.047,0.357,4.477c-0.02,0.075-0.047,0.142-0.074,0.209c-0.246,0.639-0.422,1.319-0.047,3.189
	c0.424,2.123,1.086,3.236,1.574,3.801c0.172,1.312,0.656,2.775,1.066,3.645c0.299,0.637,0.439,1.504,0.439,2.729
	c0,1.137-0.043,1.15-0.299,1.232c-3.314,0.979-8.59,2.885-10.557,3.746c-3.236-3.832-5.191-8.777-5.191-14.172
	C8.108,21.521,17.978,11.652,30.108,11.652z M14.749,49.383c2.252-0.92,6.742-2.521,9.691-3.393
	c1.715-0.541,1.715-1.984,1.715-3.145c0-0.963-0.066-2.381-0.629-3.58c-0.387-0.82-0.828-2.229-0.926-3.332
	c-0.021-0.258-0.143-0.496-0.338-0.666c-0.283-0.248-0.859-1.156-1.227-2.988c-0.291-1.45-0.168-1.767-0.049-2.074
	c0.051-0.131,0.1-0.26,0.139-0.405c0.24-0.878-0.027-3.762-0.318-5.361c-0.127-0.695,0.033-2.671,1.334-4.335
	c1.166-1.491,2.932-2.322,5.184-2.466l1.896-0.002c2.312,0.146,4.078,0.977,5.246,2.468c1.301,1.664,1.459,3.64,1.332,4.336
	c-0.289,1.599-0.559,4.482-0.318,5.359c0.041,0.146,0.088,0.275,0.139,0.406c0.119,0.307,0.242,0.624-0.047,2.074
	c-0.367,1.832-0.945,2.74-1.229,2.988c-0.193,0.17-0.314,0.408-0.338,0.666c-0.096,1.104-0.537,2.512-0.924,3.332
	c-0.443,0.943-0.953,2.197-0.953,3.539c0,1.16,0,2.604,1.732,3.15c2.822,0.834,7.334,2.383,9.717,3.32
	c-3.979,3.939-9.445,6.377-15.471,6.377C24.138,55.652,18.718,53.258,14.749,49.383z"/>
</svg>
