<?xml version="1.0" encoding="utf-8"?>
<!-- Generator: Adobe Illustrator 16.0.0, SVG Export Plug-In . SVG Version: 6.00 Build 0)  -->
<!DOCTYPE svg PUBLIC "-//W3C//DTD SVG 1.0//EN" "http://www.w3.org/TR/2001/REC-SVG-20010904/DTD/svg10.dtd">
<svg version="1.0" id="Layer_1" xmlns="http://www.w3.org/2000/svg" xmlns:xlink="http://www.w3.org/1999/xlink" x="0px" y="0px"
	 width="60px" height="60px" viewBox="0 0 60 60" enable-background="new 0 0 60 60" xml:space="preserve">
<g>
	<path fill="#5A4A46" d="M53.919,13.203h-48c-1.656,0-3,1.344-3,3v3v8v19c0,1.658,1.344,3,3,3h48c1.656,0,3-1.342,3-3v-19v-8v-3
		C56.919,14.547,55.575,13.203,53.919,13.203z M4.919,21.203h50v4h-50V21.203z M54.919,46.203c0,0.552-0.448,1-1,1h-48
		c-0.552,0-1-0.448-1-1v-19h50V46.203z M4.919,19.203v-3c0-0.552,0.448-1,1-1h48c0.552,0,1,0.448,1,1v3H4.919z"/>
	<rect x="8.919" y="41.203" fill="#5A4A46" width="20" height="2"/>
	<rect x="8.919" y="35.203" fill="#5A4A46" width="12" height="2"/>
	<path fill="#5A4A46" d="M44.89,43.203h4.061c1.087,0,1.969-0.867,1.969-1.939v-0.12c0-1.071-0.882-1.94-1.969-1.94H44.89
		c-1.089,0-1.971,0.869-1.971,1.94v0.12C42.919,42.336,43.801,43.203,44.89,43.203z"/>
</g>
</svg>
