<?xml version="1.0" encoding="utf-8"?>
<!-- Generator: Adobe Illustrator 16.0.0, SVG Export Plug-In . SVG Version: 6.00 Build 0)  -->
<!DOCTYPE svg PUBLIC "-//W3C//DTD SVG 1.1//EN" "http://www.w3.org/Graphics/SVG/1.1/DTD/svg11.dtd">
<svg version="1.1" id="Layer_1" xmlns="http://www.w3.org/2000/svg" xmlns:xlink="http://www.w3.org/1999/xlink" x="0px" y="0px"
	 width="56px" height="56px" viewBox="0 0 56 56" enable-background="new 0 0 56 56" xml:space="preserve">
<path fill="#594945" d="M51.488,3.812c-0.074,0-0.141,0.018-0.213,0.021h-5.787V3.812h-34v0.021H5.701
	C5.628,3.83,5.561,3.812,5.488,3.812c-2.209,0-4,1.791-4,4c0,1.111,0.454,2.115,1.186,2.84l8.814,8.814v-0.653
	c0,9.051,7.079,16.43,16,16.949v16.04h-8v2h18v-2h-8v-16.04c8.92-0.52,16-7.898,16-16.949v0.653l8.814-8.814
	c0.73-0.725,1.186-1.729,1.186-2.84C55.488,5.604,53.697,3.812,51.488,3.812z M11.488,16.639L4.081,9.231
	C3.699,8.853,3.488,8.349,3.488,7.812c0-1.075,0.853-1.955,1.918-1.998c0.062,0.008,0.123,0.014,0.187,0.017l0.055,0.003h0.054
	h5.787V16.639z M43.488,18.813c0,8.271-6.73,15-15,15c-8.271,0-15-6.729-15-15V5.812h30V18.813z M52.895,9.231l-7.406,7.407V5.834
	h5.787h0.053l0.055-0.003c0.064-0.003,0.125-0.009,0.188-0.017c1.064,0.043,1.918,0.923,1.918,1.998
	C53.488,8.349,53.277,8.853,52.895,9.231z"/>
</svg>
