<?xml version="1.0" encoding="utf-8"?>
<!-- Generator: Adobe Illustrator 16.0.0, SVG Export Plug-In . SVG Version: 6.00 Build 0)  -->
<!DOCTYPE svg PUBLIC "-//W3C//DTD SVG 1.0//EN" "http://www.w3.org/TR/2001/REC-SVG-20010904/DTD/svg10.dtd">
<svg version="1.0" id="Layer_1" xmlns="http://www.w3.org/2000/svg" xmlns:xlink="http://www.w3.org/1999/xlink" x="0px" y="0px"
	 width="60px" height="60px" viewBox="0 0 60 60" enable-background="new 0 0 60 60" xml:space="preserve">
<path fill="#5A4A46" d="M30.139,5.202c-12.703,0-23,4.925-23,11.001v30c0,6.074,10.297,10.999,23,10.999
	c12.701,0,23-4.925,23-10.999v-30C53.139,10.127,42.84,5.202,30.139,5.202z M30.139,7.202c12.375,0,21,4.743,21,9.001
	c0,4.256-8.625,8.999-21,8.999c-12.377,0-21-4.743-21-8.999C9.139,11.945,17.762,7.202,30.139,7.202z M51.139,44.203v2
	c0,4.256-8.625,8.999-21,8.999c-12.377,0-21-4.743-21-8.999v-2v-3.516c3.59,3.838,11.639,6.515,21,6.515
	c9.359,0,17.41-2.677,21-6.515V44.203z M51.139,36.203c0,4.256-8.625,8.999-21,8.999c-12.377,0-21-4.743-21-8.999v-3.355v-2.16
	c3.59,3.838,11.639,6.515,21,6.515c9.359,0,17.41-2.677,21-6.515V36.203z M51.139,26.203c0,4.256-8.625,8.999-21,8.999
	c-12.377,0-21-4.743-21-8.999v-5.516c3.59,3.838,11.639,6.515,21,6.515c9.359,0,17.41-2.677,21-6.515V26.203z"/>
</svg>
