<?xml version="1.0" encoding="utf-8"?>
<!-- Generator: Adobe Illustrator 16.0.0, SVG Export Plug-In . SVG Version: 6.00 Build 0)  -->
<!DOCTYPE svg PUBLIC "-//W3C//DTD SVG 1.0//EN" "http://www.w3.org/TR/2001/REC-SVG-20010904/DTD/svg10.dtd">
<svg version="1.0" id="Layer_1" xmlns="http://www.w3.org/2000/svg" xmlns:xlink="http://www.w3.org/1999/xlink" x="0px" y="0px"
	 width="60px" height="60px" viewBox="0 0 60 60" enable-background="new 0 0 60 60" xml:space="preserve">
<g>
	<path fill="#5A4A46" d="M5.748,23.808c-3.314,0-6,2.687-6,6s2.686,6,6,6c3.312,0,6-2.687,6-6S9.061,23.808,5.748,23.808z
		 M5.748,33.808c-2.207,0-4-1.794-4-4s1.793-4,4-4c2.205,0,4,1.794,4,4S7.953,33.808,5.748,33.808z"/>
	<path fill="#5A4A46" d="M53.748,23.808c-3.314,0-6,2.687-6,6s2.686,6,6,6c3.312,0,6-2.687,6-6S57.061,23.808,53.748,23.808z
		 M53.748,33.808c-2.205,0-4-1.794-4-4s1.795-4,4-4s4,1.794,4,4S55.953,33.808,53.748,33.808z"/>
	<path fill="#5A4A46" d="M29.748,23.808c-3.314,0-6,2.687-6,6s2.686,6,6,6c3.312,0,6-2.687,6-6S33.061,23.808,29.748,23.808z
		 M29.748,33.808c-2.205,0-4-1.794-4-4s1.795-4,4-4s4,1.794,4,4S31.953,33.808,29.748,33.808z"/>
</g>
</svg>
