<?xml version="1.0" encoding="utf-8"?>
<!-- Generator: Adobe Illustrator 16.0.0, SVG Export Plug-In . SVG Version: 6.00 Build 0)  -->
<!DOCTYPE svg PUBLIC "-//W3C//DTD SVG 1.0//EN" "http://www.w3.org/TR/2001/REC-SVG-20010904/DTD/svg10.dtd">
<svg version="1.0" id="Layer_1" xmlns="http://www.w3.org/2000/svg" xmlns:xlink="http://www.w3.org/1999/xlink" x="0px" y="0px"
	 width="60px" height="60px" viewBox="0 0 60 60" enable-background="new 0 0 60 60" xml:space="preserve">
<path fill="#425661" d="M54.179,10.03c-0.586-0.585-1.354-0.878-2.122-0.878c-0.769,0-1.536,0.293-2.121,0.878l-8.827,8.826v-1.672
	h-32v38h38v-32h-1.84l8.91-8.911C55.352,13.103,55.352,11.202,54.179,10.03z M45.108,53.184h-34v-34h29.673L25.108,34.855v4.328
	h4.162l15.838-15.839V53.184z M52.765,12.859L28.442,37.184h-1.334v-1.5l24.242-24.241c0.254-0.254,0.551-0.291,0.706-0.291
	s0.453,0.038,0.708,0.293c0.256,0.255,0.294,0.553,0.294,0.708C53.059,12.307,53.021,12.603,52.765,12.859z"/>
</svg>
