<?xml version="1.0" encoding="utf-8"?>
<!-- Generator: Adobe Illustrator 16.0.0, SVG Export Plug-In . SVG Version: 6.00 Build 0)  -->
<!DOCTYPE svg PUBLIC "-//W3C//DTD SVG 1.0//EN" "http://www.w3.org/TR/2001/REC-SVG-20010904/DTD/svg10.dtd">
<svg version="1.0" id="Layer_1" xmlns="http://www.w3.org/2000/svg" xmlns:xlink="http://www.w3.org/1999/xlink" x="0px" y="0px"
	 width="60px" height="60px" viewBox="0 0 60 60" enable-background="new 0 0 60 60" xml:space="preserve">
<path fill="#425661" d="M53.074,17.652H7.14H6.741H5.774H5.108v32h50v-32h-1.729H53.074z M51.074,19.652L31.758,38.969
	c-0.881,0.881-2.418,0.881-3.299,0L9.14,19.652H51.074z M7.108,20.449l12.986,12.985L7.108,46.42V20.449z M8.704,47.652
	L21.51,34.848l5.535,5.535c0.817,0.818,1.906,1.27,3.063,1.27s2.246-0.451,3.063-1.27l5.535-5.535l12.805,12.805H8.704z
	 M53.108,46.42L40.122,33.434l12.986-12.988V46.42z"/>
</svg>
