<?xml version="1.0" encoding="utf-8"?>
<!-- Generator: Adobe Illustrator 16.0.0, SVG Export Plug-In . SVG Version: 6.00 Build 0)  -->
<!DOCTYPE svg PUBLIC "-//W3C//DTD SVG 1.0//EN" "http://www.w3.org/TR/2001/REC-SVG-20010904/DTD/svg10.dtd">
<svg version="1.0" id="Layer_1" xmlns="http://www.w3.org/2000/svg" xmlns:xlink="http://www.w3.org/1999/xlink" x="0px" y="0px"
	 width="50px" height="57px" viewBox="0 0 50 57" enable-background="new 0 0 50 57" xml:space="preserve">
<path fill="#5A4A46" d="M49.812,24.009L39.146,13.342l-5.549-5.548l-4.805-4.805l-0.73-0.73C27.246,1.44,26.157,0.989,25,0.989
	s-2.246,0.451-3.063,1.27l-5.535,5.534H16.4l-1.414,1.414v0.001L8.493,15.7L2.52,21.674H2.519L0,24.192V25v32h50V25v-0.805
	L49.812,24.009z M3.203,23.817L23.351,3.673c0.881-0.881,2.418-0.881,3.299,0l21.095,21.096L33.369,39.145l-4.575-4.576l-0.729-0.73
	c-0.817-0.818-1.906-1.27-3.063-1.27s-2.246,0.451-3.063,1.27l-5.385,5.385L2.176,24.845L3.203,23.817z M15.137,40.634l-0.148,0.15
	l-0.002-0.002L2,53.768V29.104v-0.916v-0.391v-0.3L15.137,40.634z M3.596,55l1.075-1.075h0.003l18.677-18.674
	c0.881-0.881,2.418-0.881,3.299,0l18.222,18.222h0.005l1.105,1.105L46.402,55H3.596z M48,28.188V53.77L35.014,40.781l-0.004,0.003
	l-0.227-0.228L48,27.341v0.453V28.188z"/>
</svg>
