<?xml version="1.0" encoding="utf-8"?>
<!-- Generator: Adobe Illustrator 16.0.0, SVG Export Plug-In . SVG Version: 6.00 Build 0)  -->
<!DOCTYPE svg PUBLIC "-//W3C//DTD SVG 1.1//EN" "http://www.w3.org/Graphics/SVG/1.1/DTD/svg11.dtd">
<svg version="1.1" id="Layer_1" xmlns="http://www.w3.org/2000/svg" xmlns:xlink="http://www.w3.org/1999/xlink" x="0px" y="0px"
	 width="50px" height="57px" viewBox="0 0 50 57" enable-background="new 0 0 50 57" xml:space="preserve">
<g>
	<path fill="#5A4A46" d="M49.813,23.958L40,14.145v-0.001l-7.194-7.194h-0.001l-4.011-4.011l-0.73-0.73
		C27.246,1.39,26.157,0.938,25,0.938s-2.246,0.451-3.063,1.27l-4.742,4.741h-7.193v7.192l-1.508,1.508L2.52,21.623H2.519L0,24.142
		v0.808v32h50v-32v-0.805L49.813,23.958z M47.744,24.718L40,32.462V16.974L47.744,24.718z M23.351,3.622
		c0.881-0.881,2.418-0.881,3.299,0l3.327,3.327h-9.954L23.351,3.622z M31.977,8.949L38,14.974v19.488l-4.631,4.631l-4.575-4.576
		l-0.73-0.73c-0.817-0.818-1.906-1.27-3.063-1.27s-2.246,0.451-3.063,1.27l-5.385,5.384l-4.551-4.551V8.949H31.977z M3.203,23.767
		l6.798-6.797v15.649l-7.825-7.825L3.203,23.767z M2,29.053v-0.916v-0.391v-0.3l13.137,13.137l-0.148,0.15l-0.002-0.002L2,53.717
		V29.053z M3.596,54.949l1.075-1.075h0.003L23.351,35.2c0.881-0.881,2.418-0.881,3.299,0l18.222,18.222h0.005l1.105,1.105
		l0.422,0.422H3.596z M48,27.743v0.394v25.581L35.014,40.73l-0.004,0.003l-0.227-0.227L48,27.29V27.743z"/>
	<rect x="18" y="14.949" fill="#5A4A46" width="14" height="2"/>
	<rect x="18" y="26.949" fill="#5A4A46" width="14" height="2"/>
	<rect x="18" y="20.949" fill="#5A4A46" width="10" height="2"/>
</g>
</svg>
