<?xml version="1.0" encoding="utf-8"?>
<!-- Generator: Adobe Illustrator 16.0.0, SVG Export Plug-In . SVG Version: 6.00 Build 0)  -->
<!DOCTYPE svg PUBLIC "-//W3C//DTD SVG 1.0//EN" "http://www.w3.org/TR/2001/REC-SVG-20010904/DTD/svg10.dtd">
<svg version="1.0" id="Layer_1" xmlns="http://www.w3.org/2000/svg" xmlns:xlink="http://www.w3.org/1999/xlink" x="0px" y="0px"
	 width="60px" height="60px" viewBox="0 0 60 60" enable-background="new 0 0 60 60" xml:space="preserve">
<path fill="#425661" d="M49.107,12.272l-1.33,0.464c-0.035,0.012-3.638,1.246-9.334,1.246c-2.902,0-5.666-0.589-8.338-1.158
	c-2.702-0.576-5.497-1.172-8.456-1.172c-5.9,0-7.901,1.267-8.11,1.411l-0.431,0.298v0.328v22.483v19.48h2V36.527
	c0.796-0.311,2.747-0.863,6.541-0.863c2.748,0,5.318,0.547,8.039,1.127c2.773,0.592,5.642,1.203,8.755,1.203
	c6.064,0,9.839-1.303,9.997-1.357l0.668-0.236L49.107,12.272z M47.108,34.947c-1.294,0.354-4.39,1.047-8.665,1.047
	c-2.902,0-5.666-0.588-8.338-1.158c-2.702-0.576-5.497-1.172-8.456-1.172c-3.239,0-5.304,0.381-6.541,0.75v-19.9
	c0.801-0.311,2.757-0.862,6.541-0.862c2.748,0,5.318,0.548,8.039,1.128c2.773,0.591,5.642,1.202,8.755,1.202
	c4.028,0,7.046-0.575,8.665-0.978V34.947z"/>
</svg>
