<?xml version="1.0" encoding="utf-8"?>
<!-- Generator: Adobe Illustrator 16.0.0, SVG Export Plug-In . SVG Version: 6.00 Build 0)  -->
<!DOCTYPE svg PUBLIC "-//W3C//DTD SVG 1.0//EN" "http://www.w3.org/TR/2001/REC-SVG-20010904/DTD/svg10.dtd">
<svg version="1.0" id="Layer_1" xmlns="http://www.w3.org/2000/svg" xmlns:xlink="http://www.w3.org/1999/xlink" x="0px" y="0px"
	 width="60px" height="60px" viewBox="0 0 60 60" enable-background="new 0 0 60 60" xml:space="preserve">
<g>
	<path fill="#5A4A46" d="M52.984,17.202h-6.496v-5.488c0-2.491-2.02-4.512-4.512-4.512H11c-2.49,0-4.512,2.021-4.512,4.512v6.992
		v0.151v34.841c0,0.831,0.673,1.504,1.504,1.504h44.993c0.83,0,1.504-0.673,1.504-1.504V18.706
		C54.488,17.875,53.814,17.202,52.984,17.202z M11,9.202h30.977c1.385,0,2.512,1.127,2.512,2.512v5.488h-36v-5.488
		C8.488,10.329,9.615,9.202,11,9.202z M52.488,53.202h-44v-34h0.035h35.93h2h6.035V53.202z"/>
	<path fill="#5A4A46" d="M38.488,36.203c0,2.761,2.238,4.998,5,4.998s5-2.237,5-4.998c0-2.762-2.238-5-5-5
		S38.488,33.441,38.488,36.203z M46.488,36.203c0,1.653-1.346,2.998-3,2.998s-3-1.345-3-2.998c0-1.654,1.346-3,3-3
		S46.488,34.549,46.488,36.203z"/>
</g>
</svg>
