<?xml version="1.0" encoding="utf-8"?>
<!-- Generator: Adobe Illustrator 16.0.0, SVG Export Plug-In . SVG Version: 6.00 Build 0)  -->
<!DOCTYPE svg PUBLIC "-//W3C//DTD SVG 1.0//EN" "http://www.w3.org/TR/2001/REC-SVG-20010904/DTD/svg10.dtd">
<svg version="1.0" id="Layer_1" xmlns="http://www.w3.org/2000/svg" xmlns:xlink="http://www.w3.org/1999/xlink" x="0px" y="0px"
	 width="60px" height="60px" viewBox="0 0 60 60" enable-background="new 0 0 60 60" xml:space="preserve">
<path fill="#425661" d="M51.108,18.152h-26v-1c0-2.209-1.791-4-4-4h-10c-2.209,0-4,1.791-4,4v5v7v21c0,2.209,1.791,4,4,4h40
	c2.209,0,4-1.791,4-4v-28C55.108,19.943,53.317,18.152,51.108,18.152z M9.108,17.152c0-1.103,0.897-2,2-2h10c1.103,0,2,0.897,2,2v1
	v2h2h26c1.103,0,2,0.897,2,2v2h-44v-2V17.152z M51.108,52.152h-40c-1.103,0-2-0.898-2-2v-21v-3h44v24
	C53.108,51.254,52.211,52.152,51.108,52.152z"/>
</svg>
