<?xml version="1.0" encoding="utf-8"?>
<!-- Generator: Adobe Illustrator 16.0.0, SVG Export Plug-In . SVG Version: 6.00 Build 0)  -->
<svg version="1.2" baseProfile="tiny" id="Layer_1" xmlns="http://www.w3.org/2000/svg" xmlns:xlink="http://www.w3.org/1999/xlink"
	 x="0px" y="0px" width="60px" height="60px" viewBox="0 0 60 60" xml:space="preserve">
<g>
	<path fill="#475C48" d="M12.737,44.352c-3.313,0-6,2.686-6,5.999s2.687,6,6,6c3.312,0,6-2.687,6-6S16.05,44.352,12.737,44.352z
		 M12.737,54.351c-2.206,0-4-1.794-4-4c0-2.205,1.794-3.999,4-3.999s4,1.794,4,3.999C16.737,52.557,14.943,54.351,12.737,54.351z"/>
	<path fill="#475C48" d="M12.737,10.352c-3.313,0-6,2.686-6,5.999s2.687,6,6,6c3.312,0,6-2.687,6-6S16.05,10.352,12.737,10.352z
		 M12.737,20.351c-2.206,0-4-1.794-4-4c0-2.205,1.794-3.999,4-3.999s4,1.794,4,3.999C16.737,18.557,14.943,20.351,12.737,20.351z"/>
	<path fill="#475C48" d="M12.737,27.31c-3.313,0-6,2.686-6,5.999s2.687,6,6,6c3.312,0,6-2.687,6-6S16.05,27.31,12.737,27.31z
		 M12.737,37.309c-2.206,0-4-1.795-4-4s1.794-3.999,4-3.999s4,1.794,4,3.999S14.943,37.309,12.737,37.309z"/>
	<path fill="#475C48" d="M29.737,44.352c-3.313,0-6,2.686-6,5.999s2.687,6,6,6c3.312,0,6-2.687,6-6S33.05,44.352,29.737,44.352z
		 M29.737,54.351c-2.206,0-4-1.794-4-4c0-2.205,1.794-3.999,4-3.999s4,1.794,4,3.999C33.737,52.557,31.943,54.351,29.737,54.351z"/>
	<path fill="#475C48" d="M29.737,10.352c-3.313,0-6,2.686-6,5.999s2.687,6,6,6c3.312,0,6-2.687,6-6S33.05,10.352,29.737,10.352z
		 M29.737,20.351c-2.206,0-4-1.794-4-4c0-2.205,1.794-3.999,4-3.999s4,1.794,4,3.999C33.737,18.557,31.943,20.351,29.737,20.351z"/>
	<path fill="#475C48" d="M29.737,27.31c-3.313,0-6,2.686-6,5.999s2.687,6,6,6c3.312,0,6-2.687,6-6S33.05,27.31,29.737,27.31z
		 M29.737,37.309c-2.206,0-4-1.795-4-4s1.794-3.999,4-3.999s4,1.794,4,3.999S31.943,37.309,29.737,37.309z"/>
	<path fill="#475C48" d="M46.737,44.352c-3.313,0-6,2.686-6,5.999s2.687,6,6,6c3.312,0,6-2.687,6-6S50.05,44.352,46.737,44.352z
		 M46.737,54.351c-2.206,0-4-1.794-4-4c0-2.205,1.794-3.999,4-3.999s4,1.794,4,3.999C50.737,52.557,48.943,54.351,46.737,54.351z"/>
	<path fill="#475C48" d="M46.737,22.351c3.312,0,6-2.687,6-6s-2.688-5.999-6-5.999c-3.313,0-6,2.686-6,5.999
		S43.424,22.351,46.737,22.351z M46.737,12.352c2.206,0,4,1.794,4,3.999c0,2.206-1.794,4-4,4s-4-1.794-4-4
		C42.737,14.146,44.531,12.352,46.737,12.352z"/>
	<path fill="#475C48" d="M46.737,27.31c-3.313,0-6,2.686-6,5.999s2.687,6,6,6c3.312,0,6-2.687,6-6S50.05,27.31,46.737,27.31z
		 M46.737,37.309c-2.206,0-4-1.795-4-4s1.794-3.999,4-3.999s4,1.794,4,3.999S48.943,37.309,46.737,37.309z"/>
</g>
</svg>
