<?xml version="1.0" encoding="utf-8"?>
<!-- Generator: Adobe Illustrator 16.0.0, SVG Export Plug-In . SVG Version: 6.00 Build 0)  -->
<!DOCTYPE svg PUBLIC "-//W3C//DTD SVG 1.0//EN" "http://www.w3.org/TR/2001/REC-SVG-20010904/DTD/svg10.dtd">
<svg version="1.0" id="Layer_1" xmlns="http://www.w3.org/2000/svg" xmlns:xlink="http://www.w3.org/1999/xlink" x="0px" y="0px"
	 width="50px" height="50px" viewBox="0 0 50 50" enable-background="new 0 0 50 50" xml:space="preserve">
<g>
	<path fill="#5A4A46" d="M25.488-0.056l-10,10v-4h-8v12l-7.043,7.043L1.859,26.4L25.488,2.772L49.117,26.4l1.414-1.414L25.488-0.056
		z M9.488,7.944h4v4l-4,4V7.944z"/>
	<path fill="#5A4A46" d="M7.488,25.943v24h14v-14h8v14h14v-24l-18-18L7.488,25.943z M41.488,47.943h-10v-12v-2h-2h-8h-2v2v12h-10
		V26.771l16-16l16,16V47.943z"/>
</g>
</svg>
