<?xml version="1.0" encoding="utf-8"?>
<!-- Generator: Adobe Illustrator 16.0.0, SVG Export Plug-In . SVG Version: 6.00 Build 0)  -->
<svg version="1.2" baseProfile="tiny" id="Layer_1" xmlns="http://www.w3.org/2000/svg" xmlns:xlink="http://www.w3.org/1999/xlink"
	 x="0px" y="0px" width="60px" height="60px" viewBox="0 0 60 60" xml:space="preserve">
<g>
	<circle fill="#425661" cx="30.233" cy="21.565" r="2.999"/>
	<polygon fill="#425661" points="32.271,28.564 32.271,27.514 32.271,26.564 26.271,26.564 26.271,28.564 28.271,28.564 
		28.271,45.564 26.271,45.564 26.271,47.564 34.271,47.564 34.271,45.564 32.271,45.564 	"/>
	<path fill="#425661" d="M30.108,8.65c-13.807,0-25,11.193-25,25c0,13.809,11.193,25,25,25s25-11.191,25-25
		C55.108,19.844,43.915,8.65,30.108,8.65z M30.108,56.65c-12.683,0-23-10.318-23-23s10.317-23,23-23s23,10.318,23,23
		S42.791,56.65,30.108,56.65z"/>
</g>
</svg>
