<?xml version="1.0" encoding="utf-8"?>
<!-- Generator: Adobe Illustrator 16.0.0, SVG Export Plug-In . SVG Version: 6.00 Build 0)  -->
<!DOCTYPE svg PUBLIC "-//W3C//DTD SVG 1.0//EN" "http://www.w3.org/TR/2001/REC-SVG-20010904/DTD/svg10.dtd">
<svg version="1.0" id="Layer_1" xmlns="http://www.w3.org/2000/svg" xmlns:xlink="http://www.w3.org/1999/xlink" x="0px" y="0px"
	 width="60px" height="60px" viewBox="0 0 60 60" enable-background="new 0 0 60 60" xml:space="preserve">
<path fill="#5A4A46" d="M50.488,21.05c0-11.045-8.953-20-20-20c-11.047,0-20,8.955-20,20c0,6.505,3.115,12.271,7.926,15.92
	l-0.009,0.005c0.092,0.062,0.187,0.134,0.284,0.21c0.01,0.007,0.019,0.015,0.027,0.021c1.548,1.222,3.771,4.075,3.771,7.842v14.034
	h16V45.048c0-4,2.311-6.87,4-8.011l-0.006-0.006C47.34,33.385,50.488,27.591,50.488,21.05z M24.488,57.082v-6.034h12v6.034H24.488z
	 M30.488,23.049c-1.103,0-2-0.896-2-1.999c0-1.104,0.897-2.001,2-2.001c1.102,0,2,0.897,2,2.001
	C32.488,22.152,31.59,23.049,30.488,23.049z M41.281,35.432c-0.025,0.021-0.053,0.041-0.078,0.062
	c-2.213,1.574-4.715,4.964-4.715,9.554v4h-5V24.907c1.721-0.446,3-1.997,3-3.857c0-2.209-1.791-4.001-4-4.001
	c-2.209,0-4,1.792-4,4.001c0,1.86,1.278,3.411,3,3.857v24.141h-5v-4c0-4.307-2.441-7.762-4.515-9.397
	c-0.016-0.014-0.035-0.027-0.054-0.043c-0.065-0.051-0.13-0.1-0.192-0.146c-0.034-0.029-0.068-0.058-0.104-0.084
	c-4.534-3.44-7.135-8.662-7.135-14.327c0-9.925,8.075-18,18-18c9.924,0,18,8.075,18,18C48.488,26.752,45.861,31.993,41.281,35.432z"
	/>
</svg>
