<?xml version="1.0" encoding="utf-8"?>
<!-- Generator: Adobe Illustrator 16.0.0, SVG Export Plug-In . SVG Version: 6.00 Build 0)  -->
<!DOCTYPE svg PUBLIC "-//W3C//DTD SVG 1.0//EN" "http://www.w3.org/TR/2001/REC-SVG-20010904/DTD/svg10.dtd">
<svg version="1.0" id="Layer_1" xmlns="http://www.w3.org/2000/svg" xmlns:xlink="http://www.w3.org/1999/xlink" x="0px" y="0px"
	 width="60px" height="60px" viewBox="0 0 60 60" enable-background="new 0 0 60 60" xml:space="preserve">
<path fill="#475C48" d="M41.148,12.892c6.604,0,11.96,5.354,11.96,11.96c0,3.393-1.415,6.451-3.685,8.628L30.108,52.893
	L10.443,33.131c-2.063-2.15-3.335-5.064-3.335-8.279c0-6.605,5.355-11.96,11.96-11.96c4.974,0,9.237,3.038,11.04,7.359
	C31.911,15.93,36.175,12.892,41.148,12.892 M41.148,10.892c-4.399,0-8.439,2.043-11.04,5.41c-2.601-3.367-6.641-5.41-11.04-5.41
	c-7.697,0-13.96,6.263-13.96,13.96c0,3.617,1.382,7.048,3.893,9.664L28.69,54.303l1.418,1.424l1.418-1.424l19.315-19.412
	c2.739-2.629,4.267-6.205,4.267-10.039C55.108,17.155,48.846,10.892,41.148,10.892L41.148,10.892z"/>
</svg>
