<?xml version="1.0" encoding="utf-8"?>
<!-- Generator: Adobe Illustrator 16.0.0, SVG Export Plug-In . SVG Version: 6.00 Build 0)  -->
<!DOCTYPE svg PUBLIC "-//W3C//DTD SVG 1.0//EN" "http://www.w3.org/TR/2001/REC-SVG-20010904/DTD/svg10.dtd">
<svg version="1.0" id="Layer_1" xmlns="http://www.w3.org/2000/svg" xmlns:xlink="http://www.w3.org/1999/xlink" x="0px" y="0px"
	 width="60px" height="60px" viewBox="0 0 60 60" enable-background="new 0 0 60 60" xml:space="preserve">
<path fill="#465B47" d="M30.109,2c9.925,0,17.999,8.075,17.999,18.001c0,3.156-0.836,6.268-2.419,9.001L30.108,56.001L14.525,29
	c-1.581-2.731-2.417-5.843-2.417-8.999C12.108,10.075,20.184,2,30.109,2 M30.109,27c3.859,0,6.999-3.14,6.999-6.999
	c0-3.858-3.14-6.998-6.999-6.998c-3.86,0-7.001,3.14-7.001,6.998C23.108,23.86,26.249,27,30.109,27 M30.109,0
	C19.063,0,10.108,8.957,10.108,20.001c0,3.647,0.981,7.057,2.687,10.001l17.313,30l17.313-30c1.705-2.944,2.687-6.354,2.687-10.001
	C50.108,8.957,41.153,0,30.109,0L30.109,0z M30.109,25c-2.762,0-5.001-2.237-5.001-4.999c0-2.759,2.239-4.998,5.001-4.998
	c2.761,0,4.999,2.239,4.999,4.998C35.108,22.763,32.87,25,30.109,25L30.109,25z"/>
</svg>
