<?xml version="1.0" encoding="utf-8"?>
<!-- Generator: Adobe Illustrator 16.0.0, SVG Export Plug-In . SVG Version: 6.00 Build 0)  -->
<!DOCTYPE svg PUBLIC "-//W3C//DTD SVG 1.0//EN" "http://www.w3.org/TR/2001/REC-SVG-20010904/DTD/svg10.dtd">
<svg version="1.0" id="Layer_1" xmlns="http://www.w3.org/2000/svg" xmlns:xlink="http://www.w3.org/1999/xlink" x="0px" y="0px"
	 width="60px" height="60px" viewBox="0 0 60 60" enable-background="new 0 0 60 60" xml:space="preserve">
<path fill="#5A4A46" d="M39.531,6.065V34.04c0,5.537-4.488,10.025-10.025,10.025c-5.539,0-10.025-4.488-10.025-10.025V6.065H7.506
	v28c0,12.15,9.85,22,22,22s22-9.85,22-22v-28H39.531z M49.506,8.065v6h-7.975v-6H49.506z M17.48,8.065v6H9.506v-6H17.48z
	 M29.506,54.065c-11.029,0-20-8.972-20-20v-18h7.975V34.04c0,6.631,5.395,12.025,12.025,12.025s12.025-5.395,12.025-12.025V16.065
	h7.975v18C49.506,45.094,40.533,54.065,29.506,54.065z"/>
</svg>
