<?xml version="1.0" encoding="utf-8"?>
<!-- Generator: Adobe Illustrator 16.0.0, SVG Export Plug-In . SVG Version: 6.00 Build 0)  -->
<!DOCTYPE svg PUBLIC "-//W3C//DTD SVG 1.1//EN" "http://www.w3.org/Graphics/SVG/1.1/DTD/svg11.dtd">
<svg version="1.1" id="Layer_1" xmlns="http://www.w3.org/2000/svg" xmlns:xlink="http://www.w3.org/1999/xlink" x="0px" y="0px"
	 width="50px" height="57px" viewBox="0 0 50 57" enable-background="new 0 0 50 57" xml:space="preserve">
<path fill="#5A4A46" d="M37.738,5.768l-0.232-0.116l-1-0.5l-1,0.499v0.001l-11,5.5l-10.68-5.34l-0.32-0.16l-1-0.5l-1,0.5l0,0l-12,6
	v42l13-6.5l10.783,5.392l0.217,0.108l1,0.5l1-0.5l0.473-0.236l10.527-5.264l13,6.5v-42L37.738,5.768z M11.506,45.415l-10,5V12.888
	l10-5V45.415z M23.506,50.415l-10-5V7.888l10,5V50.415z M35.506,45.415l-10,5V12.888l10-5V45.415z M47.506,50.415l-10-5V7.888l10,5
	V50.415z"/>
</svg>
