<?xml version="1.0" encoding="utf-8"?>
<!-- Generator: Adobe Illustrator 16.0.0, SVG Export Plug-In . SVG Version: 6.00 Build 0)  -->
<!DOCTYPE svg PUBLIC "-//W3C//DTD SVG 1.0//EN" "http://www.w3.org/TR/2001/REC-SVG-20010904/DTD/svg10.dtd">
<svg version="1.0" id="Layer_1" xmlns="http://www.w3.org/2000/svg" xmlns:xlink="http://www.w3.org/1999/xlink" x="0px" y="0px"
	 width="60px" height="60px" viewBox="0 0 60 60" enable-background="new 0 0 60 60" xml:space="preserve">
<path fill="#475C48" d="M46.5,19.81c-7.455,0-13.5,6.044-13.5,13.5c0,4.871,2.588,9.126,6.455,11.5h-18.91
	C24.412,42.436,27,38.181,27,33.31c0-7.456-6.045-13.5-13.5-13.5S0,25.854,0,33.31s6.045,13.5,13.5,13.5h33
	c7.455,0,13.5-6.044,13.5-13.5S53.955,19.81,46.5,19.81z M2,33.31c0-6.341,5.159-11.5,11.5-11.5S25,26.969,25,33.31
	s-5.159,11.5-11.5,11.5S2,39.65,2,33.31z M46.5,44.81c-6.341,0-11.5-5.159-11.5-11.5s5.159-11.5,11.5-11.5S58,26.969,58,33.31
	S52.841,44.81,46.5,44.81z"/>
</svg>
