<?xml version="1.0" encoding="utf-8"?>
<!-- Generator: Adobe Illustrator 16.0.0, SVG Export Plug-In . SVG Version: 6.00 Build 0)  -->
<!DOCTYPE svg PUBLIC "-//W3C//DTD SVG 1.0//EN" "http://www.w3.org/TR/2001/REC-SVG-20010904/DTD/svg10.dtd">
<svg version="1.0" id="Layer_1" xmlns="http://www.w3.org/2000/svg" xmlns:xlink="http://www.w3.org/1999/xlink" x="0px" y="0px"
	 width="60px" height="60px" viewBox="0 0 60 60" enable-background="new 0 0 60 60" xml:space="preserve">
<g>
	<path fill="#475C48" d="M20.919,28.215v10h8.2l6.8,6.799V21.415l-6.8,6.8H20.919z M30.533,29.629l3.386-3.386v13.942l-3.386-3.385
		l-0.586-0.586h-0.828h-6.2v-6h6.2h0.828L30.533,29.629z"/>
	<path fill="#475C48" d="M29.919,8.215c-13.807,0-25,11.193-25,25s11.193,25,25,25s25-11.193,25-25S43.726,8.215,29.919,8.215z
		 M29.919,56.215c-12.683,0-23-10.318-23-23s10.317-23,23-23s23,10.318,23,23S42.602,56.215,29.919,56.215z"/>
</g>
</svg>
