<?xml version="1.0" encoding="utf-8"?>
<!-- Generator: Adobe Illustrator 16.0.0, SVG Export Plug-In . SVG Version: 6.00 Build 0)  -->
<!DOCTYPE svg PUBLIC "-//W3C//DTD SVG 1.1//EN" "http://www.w3.org/Graphics/SVG/1.1/DTD/svg11.dtd">
<svg version="1.1" id="Layer_1" xmlns="http://www.w3.org/2000/svg" xmlns:xlink="http://www.w3.org/1999/xlink" x="0px" y="0px"
	 width="56px" height="56px" viewBox="0 0 56 56" enable-background="new 0 0 56 56" xml:space="preserve">
<path fill="#5A4A46" d="M55.455,8.815L47.48,0.842l-1.951,1.952l-2.73-2.729c-0.391-0.391-1.023-0.391-1.414,0L25.182,16.27
	c-0.391,0.391-0.391,1.023,0,1.414c0.195,0.195,0.451,0.293,0.707,0.293s0.512-0.098,0.707-0.293L42.092,2.187l2.023,2.021
	L9.754,38.568l2.316,2.317c-0.975-0.482-2.037-0.729-3.1-0.729c-1.795,0-3.59,0.685-4.959,2.055
	c-0.141,0.139-0.275,0.289-0.404,0.446c-0.064,0.075-0.125,0.153-0.184,0.231c-0.07,0.088-0.137,0.181-0.201,0.273
	c-0.049,0.068-0.098,0.135-0.143,0.203c-2.908,4.372-3.039,12.734-3.039,12.734s0.305,0.016,0.832,0.016
	c2.402,0,9.396-0.329,13.057-3.988c2.18-2.181,2.619-5.439,1.324-8.06l2.475,2.474L55.455,8.815z M12.516,50.714
	c-2.232,2.231-6.148,3.002-8.941,3.266l4.553-4.553l-1.414-1.414l-4.361,4.361c0.355-2.668,1.062-5.9,2.4-7.909l0.057-0.08
	l0.049-0.069c0.043-0.062,0.088-0.127,0.166-0.226c0.033-0.044,0.066-0.088,0.125-0.158c0.088-0.105,0.178-0.207,0.277-0.306
	c0.947-0.947,2.205-1.469,3.545-1.469c1.338,0,2.598,0.521,3.545,1.469C14.469,45.58,14.469,48.76,12.516,50.714z M52.627,8.815
	L40.766,20.677l-5.146-5.146L47.48,3.67L52.627,8.815z M34.205,16.945l5.146,5.146L17.729,43.714l-5.146-5.146L34.205,16.945z"/>
</svg>
