<?xml version="1.0" encoding="utf-8"?>
<!-- Generator: Adobe Illustrator 16.0.0, SVG Export Plug-In . SVG Version: 6.00 Build 0)  -->
<!DOCTYPE svg PUBLIC "-//W3C//DTD SVG 1.1//EN" "http://www.w3.org/Graphics/SVG/1.1/DTD/svg11.dtd">
<svg version="1.1" id="Layer_1" xmlns="http://www.w3.org/2000/svg" xmlns:xlink="http://www.w3.org/1999/xlink" x="0px" y="0px"
	 width="56px" height="56px" viewBox="0 0 56 56" enable-background="new 0 0 56 56" xml:space="preserve">
<g>
	<path fill="#594945" d="M42.211,2H15.627c-1.495,0-2.708,1.214-2.708,2.709v48.583c0,1.497,1.213,2.708,2.708,2.708h26.584
		c1.495,0,2.708-1.211,2.708-2.708V4.709C44.919,3.214,43.706,2,42.211,2z M42.919,53.292c0,0.391-0.317,0.708-0.708,0.708H15.627
		c-0.391,0-0.708-0.317-0.708-0.708v-9.285h28V53.292z M42.919,42.007h-28V10.041h28V42.007z M42.919,8.041h-28V4.709
		C14.919,4.318,15.236,4,15.627,4h26.584c0.391,0,0.708,0.318,0.708,0.709V8.041z"/>
	<rect x="25.919" y="48" fill="#594945" width="6" height="2"/>
</g>
</svg>
