<?xml version="1.0" encoding="utf-8"?>
<!-- Generator: Adobe Illustrator 16.0.0, SVG Export Plug-In . SVG Version: 6.00 Build 0)  -->
<!DOCTYPE svg PUBLIC "-//W3C//DTD SVG 1.0//EN" "http://www.w3.org/TR/2001/REC-SVG-20010904/DTD/svg10.dtd">
<svg version="1.0" id="Layer_1" xmlns="http://www.w3.org/2000/svg" xmlns:xlink="http://www.w3.org/1999/xlink" x="0px" y="0px"
	 width="60px" height="60px" viewBox="0 0 60 60" enable-background="new 0 0 60 60" xml:space="preserve">
<g>
	<path fill="#425661" d="M51.107,20.652h-8.271l-4.809-4.82c-0.006-0.006-0.01-0.01-0.016-0.016l-0.008-0.008l0,0
		c-0.723-0.715-1.715-1.156-2.812-1.156h-10c-1.162,0-2.198,0.502-2.93,1.293l-0.004-0.012l-4.709,4.719H9.108c-2.209,0-4,1.791-4,4
		v24c0,2.209,1.791,4,4,4h42c2.211,0,4.002-1.791,4.002-4v-24C55.109,22.443,53.318,20.652,51.107,20.652z M53.109,48.652
		c0,1.102-0.898,2-2.002,2h-42c-1.103,0-2-0.898-2-2v-24c0-1.104,0.897-2,2-2h8.441h0.829l0.587-0.588l2.421-2.426l0.049,0.146
		l2.296-2.482c0.389-0.42,0.907-0.65,1.461-0.65h10c0.529,0,1.029,0.205,1.42,0.592l4.809,4.82l0.586,0.588h0.83h8.271
		c1.104,0,2.002,0.896,2.002,2V48.652z"/>
	<path fill="#425661" d="M30.107,22.652c-7.179,0-13,5.818-13,12.998s5.82,13.002,13,13.002c7.18,0,13-5.822,13-13.002
		S37.287,22.652,30.107,22.652z M30.107,46.652c-6.065,0-11-4.936-11-11.002c0-6.064,4.935-10.998,11-10.998
		c6.066,0,11,4.934,11,10.998C41.107,41.717,36.174,46.652,30.107,46.652z"/>
	<path fill="#425661" d="M30.107,26.652c-4.971,0-9,4.027-9,8.998s4.028,9.002,9,9.002c4.973,0,9-4.031,9-9.002
		S35.08,26.652,30.107,26.652z M30.107,42.652c-3.859,0-7-3.143-7-7.002s3.141-6.998,7-6.998c3.859,0,7,3.139,7,6.998
		S33.967,42.652,30.107,42.652z"/>
</g>
</svg>
