<?xml version="1.0" encoding="utf-8"?>
<!-- Generator: Adobe Illustrator 16.0.0, SVG Export Plug-In . SVG Version: 6.00 Build 0)  -->
<!DOCTYPE svg PUBLIC "-//W3C//DTD SVG 1.0//EN" "http://www.w3.org/TR/2001/REC-SVG-20010904/DTD/svg10.dtd">
<svg version="1.0" id="Layer_1" xmlns="http://www.w3.org/2000/svg" xmlns:xlink="http://www.w3.org/1999/xlink" x="0px" y="0px"
	 width="60px" height="60px" viewBox="0 0 60 60" enable-background="new 0 0 60 60" xml:space="preserve">
<path fill="#5A4A46" d="M54.748,31.202c0-13.47-10.658-24.449-24.001-24.975V6.202h-2v0.025c-13.343,0.525-24,11.505-24,24.975
	c0,13.809,11.193,25,25,25c4.851,0,9.374-1.386,13.208-3.775l0.014,0.02l0.744-0.506c0.01-0.006,0.018-0.011,0.025-0.017
	l0.885-0.601l-0.014-0.02C50.76,46.75,54.748,39.443,54.748,31.202z M50.789,21.93l-20.042,7.81V8.228
	C39.703,8.613,47.344,14.143,50.789,21.93z M29.747,54.202c-12.683,0-23-10.317-23-23c0-12.347,9.78-22.448,22-22.975V31.51
	l13.079,19.255C38.312,52.941,34.176,54.202,29.747,54.202z M43.48,49.642L31.279,31.678l20.236-7.885
	c0.795,2.326,1.232,4.816,1.232,7.409C52.748,38.741,49.102,45.444,43.48,49.642z"/>
</svg>
