<?xml version="1.0" encoding="utf-8"?>
<!-- Generator: Adobe Illustrator 16.0.0, SVG Export Plug-In . SVG Version: 6.00 Build 0)  -->
<!DOCTYPE svg PUBLIC "-//W3C//DTD SVG 1.0//EN" "http://www.w3.org/TR/2001/REC-SVG-20010904/DTD/svg10.dtd">
<svg version="1.0" id="Layer_1" xmlns="http://www.w3.org/2000/svg" xmlns:xlink="http://www.w3.org/1999/xlink" x="0px" y="0px"
	 width="60px" height="60px" viewBox="0 0 60 60" enable-background="new 0 0 60 60" xml:space="preserve">
<g>
	<rect x="5.565" y="19.217" fill="#475C48" width="26" height="2"/>
	<rect x="5.565" y="28.217" fill="#475C48" width="26" height="2"/>
	<rect x="5.565" y="37.217" fill="#475C48" width="26" height="2"/>
	<path fill="#475C48" d="M41.565,20.413l14,1.805c0-10-8-12-16-14.003v1.472v10.469v26.062c-1.197,0-3.102,0-6.162,0
		c-5.878,0-7.838,3.111-7.838,5.951c0,2.41,1.804,6.049,8,6.049c8.859,0,8-7.113,8-12V20.413z M53.386,19.919l-11.82-1.523v-7.598
		C48.212,12.598,52.48,14.575,53.386,19.919z M38.101,54.842c-0.9,0.912-2.427,1.375-4.535,1.375c-5.711,0-6-3.373-6-4.049
		c0-2.51,2.128-3.951,5.838-3.951h6.162v1.537h0.005C39.511,51.768,39.225,53.703,38.101,54.842z"/>
</g>
</svg>
