<?xml version="1.0" encoding="utf-8"?>
<!-- Generator: Adobe Illustrator 16.0.0, SVG Export Plug-In . SVG Version: 6.00 Build 0)  -->
<!DOCTYPE svg PUBLIC "-//W3C//DTD SVG 1.0//EN" "http://www.w3.org/TR/2001/REC-SVG-20010904/DTD/svg10.dtd">
<svg version="1.0" id="Layer_1" xmlns="http://www.w3.org/2000/svg" xmlns:xlink="http://www.w3.org/1999/xlink" x="0px" y="0px"
	 width="60px" height="60px" viewBox="0 0 60 60" enable-background="new 0 0 60 60" xml:space="preserve">
<g>
	<path fill="#425661" d="M30.108,8.018c-13.809,0-25,11.191-25,25c0,13.809,11.191,25,25,25s25-11.191,25-25
		C55.108,19.209,43.917,8.018,30.108,8.018z M30.108,56.018c-12.682,0-23-10.318-23-23c0-12.681,10.318-23,23-23s23,10.318,23,23
		C53.108,45.699,42.79,56.018,30.108,56.018z"/>
	<polygon fill="#425661" points="31.108,18.018 29.108,18.018 29.108,32.018 15.175,32.018 15.175,34.018 29.108,34.018 
		29.108,47.951 31.108,47.951 31.108,34.018 45.108,34.018 45.108,32.018 31.108,32.018 	"/>
</g>
</svg>
