<?xml version="1.0" encoding="utf-8"?>
<!-- Generator: Adobe Illustrator 16.0.0, SVG Export Plug-In . SVG Version: 6.00 Build 0)  -->
<!DOCTYPE svg PUBLIC "-//W3C//DTD SVG 1.1//EN" "http://www.w3.org/Graphics/SVG/1.1/DTD/svg11.dtd">
<svg version="1.1" id="Layer_1" xmlns="http://www.w3.org/2000/svg" xmlns:xlink="http://www.w3.org/1999/xlink" x="0px" y="0px"
	 width="52px" height="50px" viewBox="0 0 52 50" enable-background="new 0 0 52 50" xml:space="preserve">
<g>
	<circle fill="#5A4A46" cx="9.334" cy="19.949" r="2"/>
	<circle fill="#5A4A46" cx="15.334" cy="19.949" r="2"/>
	<path fill="#5A4A46" d="M50.334,9.949h-11v-10h-28v10h-11c-0.553,0-1,0.447-1,1v30c0,0.553,0.447,1,1,1h11v8h28v-8h11
		c0.553,0,1-0.447,1-1v-30C51.334,10.396,50.887,9.949,50.334,9.949z M13.334,1.949h24v8h-24V1.949z M37.334,47.949h-24v-18h24
		V47.949z M49.334,39.949h-10v-12h-28v12h-10v-28h10h28h10V39.949z"/>
</g>
</svg>
