<?xml version="1.0" encoding="utf-8"?>
<!-- Generator: Adobe Illustrator 16.0.0, SVG Export Plug-In . SVG Version: 6.00 Build 0)  -->
<!DOCTYPE svg PUBLIC "-//W3C//DTD SVG 1.0//EN" "http://www.w3.org/TR/2001/REC-SVG-20010904/DTD/svg10.dtd">
<svg version="1.0" id="Layer_1" xmlns="http://www.w3.org/2000/svg" xmlns:xlink="http://www.w3.org/1999/xlink" x="0px" y="0px"
	 width="60px" height="60px" viewBox="0 0 60 60" enable-background="new 0 0 60 60" xml:space="preserve">
<g>
	<path fill="#465B47" d="M30.245,7.652c-13.808,0-25,11.192-25,25c0,13.807,11.192,25,25,25s25-11.193,25-25
		C55.245,18.845,44.053,7.652,30.245,7.652z M30.245,55.652c-12.683,0-23-10.317-23-23s10.317-23,23-23s23,10.317,23,23
		S42.928,55.652,30.245,55.652z"/>
	<path fill="#465B47" d="M30.16,19.546c-5.076,0-7.91,3.137-7.946,8.106h2.205c-0.069-3.605,1.82-6.251,5.636-6.251
		c2.729,0,5.005,1.925,5.005,4.725c0,1.82-0.98,3.29-2.275,4.516c-2.659,2.469-3.405,3.629-3.539,7.011h2.233
		c0.132-3.066,0.063-3.005,2.74-5.681c1.785-1.68,3.045-3.361,3.045-5.951C37.264,21.961,34.044,19.546,30.16,19.546z"/>
	<circle fill="#465B47" cx="30.245" cy="43.653" r="2"/>
</g>
</svg>
