<?xml version="1.0" encoding="utf-8"?>
<!-- Generator: Adobe Illustrator 16.0.0, SVG Export Plug-In . SVG Version: 6.00 Build 0)  -->
<!DOCTYPE svg PUBLIC "-//W3C//DTD SVG 1.0//EN" "http://www.w3.org/TR/2001/REC-SVG-20010904/DTD/svg10.dtd">
<svg version="1.0" id="Layer_1" xmlns="http://www.w3.org/2000/svg" xmlns:xlink="http://www.w3.org/1999/xlink" x="0px" y="0px"
	 width="60px" height="60px" viewBox="0 0 60 60" enable-background="new 0 0 60 60" xml:space="preserve">
<g>
	<path fill="#425661" d="M30,15.018c-10.967,0-19.516,6.864-30,17.994c9.033,9.516,16.613,18.006,30,18.006S53.226,40.27,60,33.213
		C53.065,24.946,43.226,15.018,30,15.018z M30,49.018c-11.884,0-19.058-7.371-27.242-16.004C12.496,22.859,20.239,17.018,30,17.018
		c11.556,0,20.587,8.333,27.307,16.115C50.698,40.023,41.751,49.018,30,49.018z"/>
	<path fill="#425661" d="M30,21.019c-6.617,0-12,5.383-12,11.999c0,6.617,5.383,12,12,12s12-5.383,12-12
		C42,26.402,36.617,21.019,30,21.019z M30,43.018c-5.514,0-10-4.486-10-10c0-5.513,4.486-9.999,10-9.999s10,4.485,10,9.999
		C40,38.531,35.514,43.018,30,43.018z"/>
	<path fill="#425661" d="M30,26.018c-3.859,0-7,3.141-7,7c0,3.859,3.141,7,7,7s7-3.141,7-7C37,29.159,33.859,26.018,30,26.018z
		 M30,38.018c-2.757,0-5-2.242-5-5c0-2.756,2.243-5,5-5s5,2.243,5,5C35,35.775,32.757,38.018,30,38.018z"/>
</g>
</svg>
