<?xml version="1.0" encoding="utf-8"?>
<!-- Generator: Adobe Illustrator 16.0.0, SVG Export Plug-In . SVG Version: 6.00 Build 0)  -->
<!DOCTYPE svg PUBLIC "-//W3C//DTD SVG 1.0//EN" "http://www.w3.org/TR/2001/REC-SVG-20010904/DTD/svg10.dtd">
<svg version="1.0" id="Layer_1" xmlns="http://www.w3.org/2000/svg" xmlns:xlink="http://www.w3.org/1999/xlink" x="0px" y="0px"
	 width="60px" height="60px" viewBox="0 0 60 60" enable-background="new 0 0 60 60" xml:space="preserve">
<g>
	<path fill="#5A4A46" d="M52.642,18.119c-0.021-0.007-0.036-0.022-0.058-0.027l-42.436-10C9.61,7.968,9.071,8.299,8.945,8.836
		c-0.126,0.538,0.207,1.076,0.744,1.203l34.061,8.026H7.723c-1.548,0-2.804,1.255-2.804,2.804v30.394
		c0,1.548,1.256,2.803,2.804,2.803h44.393c1.549,0,2.804-1.255,2.804-2.803V20.869C54.919,19.501,53.938,18.365,52.642,18.119z
		 M52.919,51.263c0,0.442-0.36,0.803-0.804,0.803H7.723c-0.443,0-0.804-0.36-0.804-0.803V20.869c0-0.443,0.36-0.804,0.804-0.804
		h44.393c0.443,0,0.804,0.36,0.804,0.804V51.263z"/>
	<path fill="#5A4A46" d="M22.911,34.064c-0.828,0-1.502,0.672-1.502,1.5c0,0.826,0.674,1.5,1.502,1.5c0.826,0,1.498-0.674,1.498-1.5
		C24.409,34.736,23.737,34.064,22.911,34.064z"/>
	<circle fill="#5A4A46" cx="10.419" cy="35.564" r="1.5"/>
	<path fill="#5A4A46" d="M35.42,34.064c-0.826,0-1.501,0.672-1.501,1.5c0,0.826,0.675,1.5,1.501,1.5c0.829,0,1.499-0.674,1.499-1.5
		C36.919,34.736,36.249,34.064,35.42,34.064z"/>
	<circle fill="#5A4A46" cx="17.418" cy="38.481" r="1.5"/>
	<circle fill="#5A4A46" cx="28.419" cy="38.564" r="1.5"/>
	<circle fill="#5A4A46" cx="17.418" cy="32.565" r="1.5"/>
	<circle fill="#5A4A46" cx="28.419" cy="32.565" r="1.5"/>
	<circle fill="#5A4A46" cx="12.419" cy="41.593" r="1.5"/>
	<circle fill="#5A4A46" cx="33.42" cy="41.593" r="1.5"/>
	<circle fill="#5A4A46" cx="12.419" cy="29.565" r="1.5"/>
	<circle fill="#5A4A46" cx="33.42" cy="29.565" r="1.5"/>
	<path fill="#5A4A46" d="M16.343,44.065c-0.825,0-1.5,0.672-1.5,1.499s0.675,1.501,1.5,1.501c0.83,0,1.5-0.674,1.5-1.501
		S17.173,44.065,16.343,44.065z"/>
	<circle fill="#5A4A46" cx="29.38" cy="45.565" r="1.5"/>
	<path fill="#5A4A46" d="M16.419,27.065c0.83,0,1.5-0.672,1.5-1.499c0-0.829-0.67-1.501-1.5-1.501c-0.825,0-1.5,0.672-1.5,1.501
		C14.919,26.394,15.594,27.065,16.419,27.065z"/>
	<circle fill="#5A4A46" cx="29.38" cy="25.565" r="1.5"/>
	<circle fill="#5A4A46" cx="22.91" cy="41.593" r="1.5"/>
	<circle fill="#5A4A46" cx="22.91" cy="47.564" r="1.501"/>
	<circle fill="#5A4A46" cx="22.91" cy="29.565" r="1.5"/>
	<circle fill="#5A4A46" cx="22.91" cy="23.565" r="1.5"/>
	<path fill="#5A4A46" d="M45.921,24.065c-1.656,0-3.002,1.343-3.002,2.999s1.346,2.999,3.002,2.999c1.654,0,2.998-1.343,2.998-2.999
		S47.575,24.065,45.921,24.065z M45.921,28.063c-0.553,0-1.002-0.448-1.002-0.999s0.449-0.999,1.002-0.999
		c0.551,0,0.998,0.448,0.998,0.999S46.472,28.063,45.921,28.063z"/>
	<path fill="#5A4A46" d="M45.921,32.065c-1.656,0-3.002,1.343-3.002,2.999s1.346,2.999,3.002,2.999c1.654,0,2.998-1.343,2.998-2.999
		S47.575,32.065,45.921,32.065z M45.921,36.063c-0.553,0-1.002-0.448-1.002-0.999s0.449-0.999,1.002-0.999
		c0.551,0,0.998,0.448,0.998,0.999S46.472,36.063,45.921,36.063z"/>
</g>
</svg>
