<?xml version="1.0" encoding="utf-8"?>
<!-- Generator: Adobe Illustrator 16.0.0, SVG Export Plug-In . SVG Version: 6.00 Build 0)  -->
<!DOCTYPE svg PUBLIC "-//W3C//DTD SVG 1.0//EN" "http://www.w3.org/TR/2001/REC-SVG-20010904/DTD/svg10.dtd">
<svg version="1.0" id="Layer_1" xmlns="http://www.w3.org/2000/svg" xmlns:xlink="http://www.w3.org/1999/xlink" x="0px" y="0px"
	 width="60px" height="60px" viewBox="0 0 60 60" enable-background="new 0 0 60 60" xml:space="preserve">
<path fill="#465B47" d="M58.5,30.719h-0.599c-0.741-6.196-6.007-11-12.401-11c-5.941,0-10.904,4.148-12.175,9.704l-2.862-1.495
	c-0.289-0.15-0.637-0.15-0.926,0l-2.862,1.495c-1.271-5.557-6.233-9.705-12.175-9.705c-6.396,0-11.659,4.805-12.401,11H1.5
	c-0.828,0-1.5,0.672-1.5,1.502c0,0.826,0.672,1.498,1.5,1.498h0.599c0.742,6.195,6.006,11,12.401,11c6.903,0,12.5-5.596,12.5-12.5
	c0-0.232-0.022-0.459-0.035-0.689L30,29.942l3.035,1.585C33.022,31.758,33,31.984,33,32.217c0,6.904,5.597,12.5,12.5,12.5
	c6.395,0,11.658-4.805,12.401-10.998H58.5c0.828,0,1.5-0.672,1.5-1.5S59.328,30.719,58.5,30.719z M14.5,42.717
	c-5.79,0-10.5-4.709-10.5-10.5c0-5.79,4.71-10.5,10.5-10.5s10.5,4.71,10.5,10.5C25,38.008,20.29,42.717,14.5,42.717z M45.5,42.717
	c-5.79,0-10.5-4.709-10.5-10.5c0-5.789,4.71-10.499,10.5-10.499S56,26.428,56,32.217C56,38.008,51.29,42.717,45.5,42.717z"/>
</svg>
