<?xml version="1.0" encoding="utf-8"?>
<!-- Generator: Adobe Illustrator 16.0.0, SVG Export Plug-In . SVG Version: 6.00 Build 0)  -->
<!DOCTYPE svg PUBLIC "-//W3C//DTD SVG 1.0//EN" "http://www.w3.org/TR/2001/REC-SVG-20010904/DTD/svg10.dtd">
<svg version="1.0" id="Layer_1" xmlns="http://www.w3.org/2000/svg" xmlns:xlink="http://www.w3.org/1999/xlink" x="0px" y="0px"
	 width="60px" height="60px" viewBox="0 0 60 60" enable-background="new 0 0 60 60" xml:space="preserve">
<g>
	<path fill="#475C48" d="M29.924,42c6.074,0,11-4.924,11-11V10.999c0-6.075-4.926-10.999-11-10.999s-11,4.924-11,10.999V31
		C18.924,37.076,23.85,42,29.924,42z M20.924,10.999c0-4.962,4.037-8.999,9-8.999s9,4.037,9,8.999V31c0,4.963-4.037,9-9,9
		s-9-4.037-9-9V10.999z"/>
	<path fill="#475C48" d="M44.919,21v10c0,8.271-6.729,15-15,15s-15-6.729-15-15V21h-2v10c0,9.082,7.163,16.5,16.133,16.957h-0.128
		v10.066h-9.005v2h20v-2h-8.995V47.957h-0.138C39.756,47.5,46.919,40.082,46.919,31V21H44.919z"/>
</g>
</svg>
