<?xml version="1.0" encoding="utf-8"?>
<!-- Generator: Adobe Illustrator 16.0.0, SVG Export Plug-In . SVG Version: 6.00 Build 0)  -->
<!DOCTYPE svg PUBLIC "-//W3C//DTD SVG 1.0//EN" "http://www.w3.org/TR/2001/REC-SVG-20010904/DTD/svg10.dtd">
<svg version="1.0" id="Layer_1" xmlns="http://www.w3.org/2000/svg" xmlns:xlink="http://www.w3.org/1999/xlink" x="0px" y="0px"
	 width="60px" height="60px" viewBox="0 0 60 60" enable-background="new 0 0 60 60" xml:space="preserve">
<path fill="#5A4A46" d="M52.006,11.202V8.101c0-2.705-2.193-4.898-4.898-4.898H14.906c-2.705,0-4.896,2.193-4.896,4.898v3.102H9.092
	c-2.258,0-4.086,1.83-4.086,4.087v6.845c0,2.257,1.828,4.087,4.086,4.087h17.164v-0.006h1.662c1.15,0,2.088,0.937,2.088,2.087v6.9
	h-3.998v24h10v-24h-4.002v-6.9c0-2.257-1.83-4.087-4.088-4.087h-2.477v0.006H9.092c-1.15,0-2.086-0.937-2.086-2.087v-6.845
	c0-1.15,0.936-2.087,2.086-2.087h0.918v3.103c0,2.705,2.191,4.897,4.896,4.897h32.201c2.705,0,4.898-2.192,4.898-4.897v-3.103h2v-2
	H52.006z M34.008,57.202h-6v-20h6V57.202z M50.006,16.305c0,1.598-1.301,2.897-2.898,2.897H14.906c-1.598,0-2.896-1.3-2.896-2.897
	V8.101c0-1.599,1.299-2.898,2.896-2.898h32.201c1.598,0,2.898,1.3,2.898,2.898V16.305z"/>
</svg>
