<?xml version="1.0" encoding="utf-8"?>
<!-- Generator: Adobe Illustrator 16.0.0, SVG Export Plug-In . SVG Version: 6.00 Build 0)  -->
<svg version="1.2" baseProfile="tiny" id="Layer_1" xmlns="http://www.w3.org/2000/svg" xmlns:xlink="http://www.w3.org/1999/xlink"
	 x="0px" y="0px" width="60px" height="60px" viewBox="0 0 60 60" xml:space="preserve">
<path fill="#425661" d="M54.727,54.312L41.104,40.688c2.738-3.293,4.387-7.521,4.387-12.138c0-10.494-8.506-19-19-19
	c-10.492,0-19,8.506-19,19c0,10.492,8.508,19,19,19c4.617,0,8.846-1.648,12.139-4.387l13.623,13.625L54.727,54.312z M9.49,28.549
	c0-9.374,7.625-17,17-17c9.373,0,17,7.626,17,17c0,9.375-7.627,17-17,17C17.115,45.549,9.49,37.924,9.49,28.549z"/>
</svg>
