<?xml version="1.0" encoding="utf-8"?>
<!-- Generator: Adobe Illustrator 16.0.0, SVG Export Plug-In . SVG Version: 6.00 Build 0)  -->
<!DOCTYPE svg PUBLIC "-//W3C//DTD SVG 1.0//EN" "http://www.w3.org/TR/2001/REC-SVG-20010904/DTD/svg10.dtd">
<svg version="1.0" id="Layer_1" xmlns="http://www.w3.org/2000/svg" xmlns:xlink="http://www.w3.org/1999/xlink" x="0px" y="0px"
	 width="60px" height="60px" viewBox="0 0 60 60" enable-background="new 0 0 60 60" xml:space="preserve">
<path fill="#5A4A46" d="M55.717,49.37L45.11,38.764l1.415-1.415l-1.414-1.414l-4.241,4.241l-7.073-7.071l8.498-8.5
	c1.132,0.403,2.315,0.607,3.529,0.607c2.801,0,5.435-1.091,7.416-3.07c3.057-3.059,3.924-7.604,2.209-11.58l-0.583-1.354
	l-4.558,4.558l-3.67,0.05l0.049-3.5l4.646-4.646l-1.351-0.585c-1.325-0.573-2.732-0.864-4.182-0.864
	c-2.802,0-5.435,1.091-7.413,3.071c-2.9,2.898-3.832,7.132-2.46,10.954l-8.495,8.495L15.411,14.721l1.415-1.414L9.051,5.53
	l-4.246,4.24l7.779,7.778l1.413-1.414L26.02,28.155l-8.496,8.496c-1.135-0.406-2.323-0.611-3.541-0.611
	c-2.801,0-5.435,1.091-7.414,3.071c-3.063,3.062-3.929,7.613-2.205,11.594l0.585,1.35l4.646-4.646l3.499-0.047l-0.05,3.67
	L8.485,55.59l1.354,0.583c1.321,0.569,2.723,0.858,4.166,0.858c2.802,0,5.434-1.09,7.413-3.069
	c2.896-2.896,3.828-7.125,2.465-10.941l8.5-8.501l7.073,7.07l-4.244,4.244l1.414,1.414l1.414-1.414l10.605,10.605
	c0.944,0.945,2.201,1.466,3.536,1.466s2.591-0.521,3.536-1.466C57.667,54.491,57.666,51.319,55.717,49.37z M7.635,9.771L9.05,8.358
	l4.948,4.948l-1.414,1.414L7.635,9.771z M21.795,43.172c1.387,3.22,0.684,6.9-1.791,9.376c-1.602,1.602-3.731,2.483-5.999,2.483
	c-0.651,0-1.292-0.072-1.916-0.217l2.942-2.942l0.089-6.537l-6.366,0.086l-3.037,3.037c-0.668-2.832,0.152-5.82,2.266-7.933
	c1.603-1.603,3.733-2.485,6-2.485c1.175,0,2.313,0.235,3.387,0.7l0.624,0.27l20.294-20.294l-0.27-0.624
	c-1.396-3.224-0.694-6.907,1.785-9.386c1.602-1.603,3.732-2.485,5.999-2.485c0.657,0,1.303,0.074,1.933,0.22l-3.035,3.035
	l-0.088,6.367l6.537-0.089l2.945-2.944c0.66,2.827-0.161,5.81-2.268,7.918c-1.604,1.602-3.734,2.484-6.002,2.484
	c-1.171,0-2.307-0.234-3.378-0.695l-0.623-0.269L21.526,42.549L21.795,43.172z M54.304,55.025c-0.567,0.567-1.321,0.88-2.122,0.88
	c-0.802,0-1.555-0.312-2.122-0.88L39.454,44.42l4.242-4.242l10.606,10.606C55.473,51.954,55.473,53.856,54.304,55.025z"/>
</svg>
