<?xml version="1.0" encoding="utf-8"?>
<!-- Generator: Adobe Illustrator 16.0.0, SVG Export Plug-In . SVG Version: 6.00 Build 0)  -->
<!DOCTYPE svg PUBLIC "-//W3C//DTD SVG 1.0//EN" "http://www.w3.org/TR/2001/REC-SVG-20010904/DTD/svg10.dtd">
<svg version="1.0" id="Layer_1" xmlns="http://www.w3.org/2000/svg" xmlns:xlink="http://www.w3.org/1999/xlink" x="0px" y="0px"
	 width="60px" height="60px" viewBox="0 0 60 60" enable-background="new 0 0 60 60" xml:space="preserve">
<path fill="#465B47" d="M20.442,11.529c-1.588,3.221-2.429,6.778-2.429,10.437c0,13.087,10.647,23.733,23.734,23.733
	c3.85,0,7.569-0.918,10.901-2.648c-4.032,7.257-11.72,11.948-20.375,11.948c-12.878,0-23.355-10.477-23.355-23.354
	C8.919,23.221,13.438,15.64,20.442,11.529 M25.898,7.131C14.987,9.961,6.919,19.848,6.919,31.645
	c0,14.002,11.354,25.354,25.355,25.354c11.98,0,21.994-8.319,24.645-19.486c-3.915,3.824-9.264,6.187-15.171,6.187
	c-12.003,0-21.734-9.73-21.734-21.733C20.014,16.224,22.258,11.016,25.898,7.131L25.898,7.131z"/>
</svg>
