<?xml version="1.0" encoding="utf-8"?>
<!-- Generator: Adobe Illustrator 16.0.0, SVG Export Plug-In . SVG Version: 6.00 Build 0)  -->
<!DOCTYPE svg PUBLIC "-//W3C//DTD SVG 1.0//EN" "http://www.w3.org/TR/2001/REC-SVG-20010904/DTD/svg10.dtd">
<svg version="1.0" id="Layer_1" xmlns="http://www.w3.org/2000/svg" xmlns:xlink="http://www.w3.org/1999/xlink" x="0px" y="0px"
	 width="60px" height="60px" viewBox="0 0 60 60" enable-background="new 0 0 60 60" xml:space="preserve">
<path fill="#425661" d="M36.474,26.656l-6.34-19.504l-6.342,19.504H3.134l16.74,11.999l-6.428,19.498l16.688-12.096l16.686,12.096
	l-6.426-19.498l16.74-11.999H36.474z M38.493,39.281l4.49,13.619l-11.676-8.463l-1.174-0.85l-1.174,0.85L17.282,52.9l4.49-13.619
	l0.461-1.396l-1.195-0.855L9.356,28.656h14.436h1.453l0.449-1.382l4.439-13.654l4.438,13.654l0.449,1.382h1.453h14.436
	l-11.682,8.374l-1.193,0.855L38.493,39.281z"/>
</svg>
