<?xml version="1.0" encoding="utf-8"?>
<!-- Generator: Adobe Illustrator 16.0.0, SVG Export Plug-In . SVG Version: 6.00 Build 0)  -->
<!DOCTYPE svg PUBLIC "-//W3C//DTD SVG 1.0//EN" "http://www.w3.org/TR/2001/REC-SVG-20010904/DTD/svg10.dtd">
<svg version="1.0" id="Layer_1" xmlns="http://www.w3.org/2000/svg" xmlns:xlink="http://www.w3.org/1999/xlink" x="0px" y="0px"
	 width="60px" height="60px" viewBox="0 0 60 60" enable-background="new 0 0 60 60" xml:space="preserve">
<g>
	<path fill="#425661" d="M28.644,35.387c0.039,0.049,0.094,0.09,0.137,0.137c0.551,0.684,1.383,1.129,2.328,1.129
		c1.656,0,3-1.342,3-3c0-0.881-0.387-1.664-0.988-2.213c-0.078-0.088-0.15-0.178-0.266-0.266l-12.123-9.225
		c-0.354-0.271-0.861-0.285-1.23,0c-0.441,0.34-0.523,0.973-0.184,1.414L28.644,35.387z"/>
	<path fill="#425661" d="M31.108,8.654c-0.328,0-0.648,0.037-0.973,0.049V9.74h-0.027v10.91h2v-9.945
		c12.219,0.529,22,10.604,22,22.947c0,12.682-10.316,22.998-23,22.998s-23-10.316-23-22.998c0-6.342,2.58-12.092,6.746-16.256
		l-1.422-1.422c-4.525,4.523-7.324,10.773-7.324,17.678c0,13.807,11.191,24.998,25,24.998s25-11.191,25-24.998
		S44.917,8.654,31.108,8.654z"/>
</g>
</svg>
