<?xml version="1.0" encoding="utf-8"?>
<!-- Generator: Adobe Illustrator 16.0.0, SVG Export Plug-In . SVG Version: 6.00 Build 0)  -->
<!DOCTYPE svg PUBLIC "-//W3C//DTD SVG 1.0//EN" "http://www.w3.org/TR/2001/REC-SVG-20010904/DTD/svg10.dtd">
<svg version="1.0" id="Layer_1" xmlns="http://www.w3.org/2000/svg" xmlns:xlink="http://www.w3.org/1999/xlink" x="0px" y="0px"
	 width="60px" height="60px" viewBox="0 0 60 60" enable-background="new 0 0 60 60" xml:space="preserve">
<g>
	<path fill="#425661" d="M47.062,20.111l1.692-1.691l1.715,1.715l2.121-2.121l-4.844-4.844l-2.121,2.121l1.715,1.715l-1.692,1.691
		c-3.749-3.438-8.641-5.643-14.04-5.992V8.652h-3v4.053c-12.003,0.773-21.5,10.748-21.5,22.947c0,12.703,10.297,23,23,23
		s23-10.297,23-23C53.108,29.66,50.815,24.205,47.062,20.111z M30.108,56.652c-11.579,0-21-9.422-21-21c0-11.58,9.421-21,21-21
		s21,9.42,21,21C51.108,47.23,41.688,56.652,30.108,56.652z"/>
	<path fill="#425661" d="M31.108,32.836V19.652h-2v13.184c-1.162,0.414-2,1.512-2,2.816s0.838,2.402,2,2.816v4.184h2v-4.184
		c1.162-0.414,2-1.512,2-2.816S32.271,33.25,31.108,32.836z"/>
</g>
</svg>
