<?xml version="1.0" encoding="utf-8"?>
<!-- Generator: Adobe Illustrator 16.0.0, SVG Export Plug-In . SVG Version: 6.00 Build 0)  -->
<!DOCTYPE svg PUBLIC "-//W3C//DTD SVG 1.0//EN" "http://www.w3.org/TR/2001/REC-SVG-20010904/DTD/svg10.dtd">
<svg version="1.0" id="Layer_1" xmlns="http://www.w3.org/2000/svg" xmlns:xlink="http://www.w3.org/1999/xlink" x="0px" y="0px"
	 width="60px" height="60px" viewBox="0 0 60 60" enable-background="new 0 0 60 60" xml:space="preserve">
<g>
	<polygon fill="#425661" points="37.563,31.615 36.149,30.201 30.135,36.217 24.119,30.201 22.705,31.615 28.72,37.631 
		22.686,43.664 24.1,45.078 30.135,39.045 36.169,45.078 37.583,43.664 31.549,37.631 	"/>
	<path fill="#425661" d="M55.134,16.654h-50v2h1.47l0.53,4c0,1.596,0.94,2.961,2.291,3.604l3.527,20.574
		c0.369,2.094,1.71,3.818,3.818,3.818h26.727c2.107,0,3.387-1.693,3.818-3.818l3.527-20.574c1.351-0.643,2.291-2.008,2.291-3.604
		l0.53-4h1.47V16.654z M45.35,46.463c-0.173,0.83-0.641,2.188-1.853,2.188H16.771c-1.361,0-1.759-1.658-1.848-2.156l-3.401-19.84
		h37.225L45.35,46.463z M51.151,22.393l-0.018,0.131v0.131c0,1.104-0.897,2-2,2h-38c-1.103,0-2-0.896-2-2v-0.131l-0.018-0.131
		l-0.495-3.738h43.025L51.151,22.393z"/>
</g>
</svg>
