<?xml version="1.0" encoding="utf-8"?>
<!-- Generator: Adobe Illustrator 16.0.0, SVG Export Plug-In . SVG Version: 6.00 Build 0)  -->
<!DOCTYPE svg PUBLIC "-//W3C//DTD SVG 1.0//EN" "http://www.w3.org/TR/2001/REC-SVG-20010904/DTD/svg10.dtd">
<svg version="1.0" id="Layer_1" xmlns="http://www.w3.org/2000/svg" xmlns:xlink="http://www.w3.org/1999/xlink" x="0px" y="0px"
	 width="60px" height="60px" viewBox="0 0 60 60" enable-background="new 0 0 60 60" xml:space="preserve">
<g>
	<path fill="#425661" d="M49.107,14.652h-10v-2c0-2.209-1.791-4-4-4h-10c-2.209,0-4,1.791-4,4v2h-10v2h2.061l2.002,38
		c0,2.209,1.791,4,4,4h22c2.209,0,4-1.791,4-4l1.967-38h1.971V14.652z M23.107,12.652c0-1.104,0.898-2,2-2h10c1.104,0,2,0.896,2,2v2
		h-14V12.652z M43.174,54.549L43.17,54.6v0.053c0,1.102-0.896,2-2,2h-22c-1.102,0-2-0.898-2-2V54.6l-0.002-0.053L15.17,16.652
		h29.965L43.174,54.549z"/>
	<rect x="29.107" y="20.652" fill="#425661" width="2" height="32"/>
	
		<rect x="7.129" y="35.683" transform="matrix(0.064 0.998 -0.998 0.064 58.2589 11.2529)" fill="#425661" width="32.003" height="2"/>
	
		<rect x="36.114" y="20.621" transform="matrix(0.998 0.0625 -0.0625 0.998 2.3633 -2.248)" fill="#425661" width="2" height="32.064"/>
</g>
</svg>
