<?xml version="1.0" encoding="utf-8"?>
<!-- Generator: Adobe Illustrator 16.0.0, SVG Export Plug-In . SVG Version: 6.00 Build 0)  -->
<!DOCTYPE svg PUBLIC "-//W3C//DTD SVG 1.0//EN" "http://www.w3.org/TR/2001/REC-SVG-20010904/DTD/svg10.dtd">
<svg version="1.0" id="Layer_1" xmlns="http://www.w3.org/2000/svg" xmlns:xlink="http://www.w3.org/1999/xlink" x="0px" y="0px"
	 width="60px" height="60px" viewBox="0 0 60 60" enable-background="new 0 0 60 60" xml:space="preserve">
<path fill="#5A4A46" d="M30.92,6.024V3h-2v3.024c-16.08,0.527-29,13.688-29,29.803c0,1.061,0.059,2.146,0.176,3.23l1.992-0.071
	C2.209,35.63,4.932,33,8.289,33c3.424,0,6.211,2.787,6.211,6.212h2c0-3.425,2.787-6.212,6.213-6.212
	c3.387,0,6.145,2.725,6.207,6.097v15.484c0,2.437,1.98,4.419,4.418,4.419s4.42-1.982,4.42-4.419h-2c0,1.334-1.086,2.419-2.42,2.419
	s-2.418-1.085-2.418-2.419V39.212h0.006c0-3.425,2.785-6.212,6.211-6.212s6.213,2.787,6.213,6.212h2
	c0-3.425,2.787-6.212,6.211-6.212c3.328,0,6.051,2.605,6.197,5.932l1.994,0.061c0.111-1.061,0.168-2.125,0.168-3.165
	C59.92,19.713,47,6.552,30.92,6.024z M51.561,31c-3.107,0-5.816,1.735-7.211,4.287C42.955,32.735,40.244,31,37.137,31
	s-5.816,1.735-7.211,4.287C28.531,32.735,25.82,31,22.713,31s-5.818,1.735-7.213,4.287C14.105,32.735,11.396,31,8.289,31
	c-2.539,0-4.803,1.137-6.307,2.94C2.963,19.472,15.117,7.999,29.92,7.999c14.799,0,26.953,11.471,27.936,25.936
	C56.35,32.136,54.088,31,51.561,31z"/>
</svg>
