<?xml version="1.0" encoding="utf-8"?>
<!-- Generator: Adobe Illustrator 16.0.0, SVG Export Plug-In . SVG Version: 6.00 Build 0)  -->
<!DOCTYPE svg PUBLIC "-//W3C//DTD SVG 1.0//EN" "http://www.w3.org/TR/2001/REC-SVG-20010904/DTD/svg10.dtd">
<svg version="1.0" id="Layer_1" xmlns="http://www.w3.org/2000/svg" xmlns:xlink="http://www.w3.org/1999/xlink" x="0px" y="0px"
	 width="60px" height="60px" viewBox="0 0 60 60" enable-background="new 0 0 60 60" xml:space="preserve">
<g>
	<path fill="#475C48" d="M20.737,28.215v10h8.2l6.8,6.799V21.415l-6.8,6.8H20.737z M30.352,29.629l3.386-3.386v13.942l-3.386-3.385
		l-0.586-0.586h-0.828h-6.2v-6h6.2h0.828L30.352,29.629z"/>
	<path fill="#475C48" d="M49.79,18.284l-1.612,1.2c2.862,3.835,4.56,8.588,4.56,13.73s-1.697,9.896-4.56,13.729l1.612,1.2
		c3.107-4.166,4.947-9.333,4.947-14.93S52.897,22.45,49.79,18.284z"/>
	<path fill="#475C48" d="M44.953,44.544c2.364-3.168,3.783-7.081,3.783-11.329s-1.419-8.161-3.783-11.329l-1.602,1.192
		c2.115,2.834,3.385,6.336,3.385,10.137s-1.269,7.302-3.385,10.137L44.953,44.544z"/>
	<path fill="#475C48" d="M40.148,40.967c1.618-2.168,2.589-4.845,2.589-7.752s-0.971-5.585-2.589-7.752l-1.602,1.192
		c1.369,1.834,2.19,4.1,2.19,6.56s-0.821,4.726-2.19,6.56L40.148,40.967z"/>
	<path fill="#475C48" d="M29.736,56.215c-12.682,0-22.999-10.317-22.999-23s10.317-23,22.999-23c6.32,0,12.046,2.569,16.208,6.709
		l1.421-1.421c-4.521-4.5-10.747-7.288-17.629-7.288c-13.806,0-24.999,11.192-24.999,25c0,13.807,11.193,25,24.999,25
		c6.882,0,13.107-2.788,17.629-7.288l-1.421-1.422C41.782,53.646,36.057,56.215,29.736,56.215z"/>
</g>
</svg>
