<?xml version="1.0" encoding="utf-8"?>
<!-- Generator: Adobe Illustrator 16.0.0, SVG Export Plug-In . SVG Version: 6.00 Build 0)  -->
<!DOCTYPE svg PUBLIC "-//W3C//DTD SVG 1.0//EN" "http://www.w3.org/TR/2001/REC-SVG-20010904/DTD/svg10.dtd">
<svg version="1.0" id="Layer_1" xmlns="http://www.w3.org/2000/svg" xmlns:xlink="http://www.w3.org/1999/xlink" x="0px" y="0px"
	 width="60px" height="60px" viewBox="0 0 60 60" enable-background="new 0 0 60 60" xml:space="preserve">
<path fill="#425661" d="M30.107,8.652c-0.006,0-0.014,0-0.021,0c-0.002,0-0.006,0-0.01,0c-0.01,0-0.02,0.002-0.029,0.002
	C16.267,8.686,5.108,19.865,5.108,33.652c0,13.783,11.159,24.965,24.939,24.998c0.01,0,0.02,0.002,0.029,0.002
	c0.004,0,0.008,0,0.01,0c0.008,0,0.016,0,0.021,0c13.805,0,25-11.195,25-25C55.107,19.846,43.912,8.652,30.107,8.652z
	 M31.107,23.613c2.65-0.072,5.23-0.422,7.713-1.027c0.75,2.947,1.213,6.344,1.287,10.066h-9V23.613z M31.107,21.613V10.811
	c2.697,0.746,5.428,4.34,7.168,9.852C35.967,21.219,33.57,21.543,31.107,21.613z M29.108,10.787v10.826
	c-2.482-0.07-4.898-0.4-7.226-0.967C23.637,15.102,26.394,11.494,29.108,10.787z M29.108,23.611v9.041h-9.062
	c0.073-3.729,0.539-7.129,1.288-10.078C23.837,23.186,26.436,23.541,29.108,23.611z M18.034,32.652h-10.9
	c0.221-5.141,2.136-9.852,5.202-13.582c2.227,1.227,4.589,2.23,7.063,2.98C18.591,25.24,18.107,28.836,18.034,32.652z
	 M18.034,34.652c0.073,3.814,0.558,7.41,1.365,10.6c-2.474,0.752-4.837,1.756-7.063,2.982c-3.066-3.73-4.981-8.441-5.202-13.582
	H18.034z M20.046,34.652h9.062v9.029c-2.672,0.07-5.271,0.428-7.774,1.041C20.584,41.775,20.12,38.377,20.046,34.652z M29.108,45.68
	v10.838c-2.716-0.709-5.475-4.32-7.229-9.871C24.208,46.08,26.625,45.75,29.108,45.68z M31.107,56.494V45.68
	c2.463,0.07,4.859,0.396,7.17,0.953C36.537,52.148,33.805,55.748,31.107,56.494z M31.107,43.682v-9.029h9
	c-0.074,3.719-0.537,7.111-1.283,10.057C36.338,44.104,33.76,43.752,31.107,43.682z M42.119,34.652h10.963
	c-0.221,5.141-2.135,9.85-5.201,13.58c-2.244-1.234-4.627-2.246-7.123-3C41.564,42.047,42.047,38.459,42.119,34.652z M42.119,32.652
	c-0.072-3.812-0.557-7.402-1.363-10.59c2.494-0.754,4.877-1.764,7.119-2.998c3.07,3.73,4.986,8.443,5.207,13.588H42.119z
	 M46.498,17.537c-1.99,1.059-4.09,1.934-6.283,2.598c-1.17-3.762-2.811-6.832-4.752-8.848
	C39.721,12.309,43.523,14.512,46.498,17.537z M24.673,11.307c-1.931,2.012-3.564,5.068-4.729,8.811
	c-2.172-0.662-4.254-1.529-6.226-2.58C16.673,14.531,20.447,12.334,24.673,11.307z M13.711,49.76c1.974-1.053,4.057-1.92,6.23-2.582
	c1.165,3.746,2.799,6.807,4.731,8.82C20.444,54.969,16.668,52.77,13.711,49.76z M35.463,56.016c1.943-2.016,3.584-5.088,4.754-8.855
	c2.195,0.666,4.297,1.539,6.287,2.602C43.529,52.789,39.725,54.996,35.463,56.016z"/>
</svg>
